<svg xmlns:xlink="http://www.w3.org/1999/xlink" width="397" height="345" viewBox="0 0 397 345" fill="none" xmlns="http://www.w3.org/2000/svg"><g clip-path="url(#clip0_1552_204)" fill="none"><path d="M366.742 57.4255C363.038 48.6915 364.555 41.081 364.555 32.0297C364.555 30.2689 364.875 24.9053 363.024 23.9454C360.106 22.4315 357.379 21.4213 353.936 21.4213C351.647 21.4213 349.347 21.4872 347.059 21.4213C344.771 21.3553 342.554 20.4244 340.292 20.1473C336.082 19.6316 331.703 20.3497 327.546 20.3497C324.246 20.3497 320.831 20.7783 317.656 20.7783C317.093 20.7783 314.795 21.0471 314.424 21.3736C313.291 22.3731 313.616 23.9758 312.723 24.8502" stroke="#00796B" stroke-opacity="0.5" stroke-width="1.66333px" stroke-linecap="round" stroke-linejoin="round" fill="none"></path><path d="M312.942 25.625C312.798 28.2024 312.744 31.8192 311.683 34.3377C310.996 35.9697 311.544 38.1417 311.405 39.8799C311.138 43.2166 311.635 46.4688 311.635 49.7059C311.635 54.0484 311.417 58.3352 311.417 62.654C311.417 66.3608 315.039 65.7401 317.903 65.2194C320.378 64.7695 323.698 65.6716 326.277 65.7034C331.252 65.7648 336.251 66.139 341.234 66.139C345.396 66.139 348.486 64.9305 352.318 63.4768C354.365 62.7006 355.602 62.8718 357.8 62.8718C359.882 62.8718 361.594 62.5463 363.681 63.1985C364.902 63.5801 367.089 63.2507 367.783 62.0005C368.616 60.5015 366.96 59.8514 366.96 58.6243C366.96 57.5941 367.09 54.6478 366.743 57.4264" stroke="#00796B" stroke-opacity="0.5" stroke-width="1.66333px" stroke-linecap="round" stroke-linejoin="round" fill="none"></path><path d="M341.912 31.2884C341.912 31.2884 341.041 31.724 340.169 32.5953C339.298 33.2488 337.464 32.9221 335.922 32.9221C335.111 32.9221 334.254 32.2895 333.526 31.9661C332.052 31.311 332.931 32.5432 333.284 33.2488C333.675 34.0299 333.229 35.4822 332.522 35.9715C331.355 36.779 330.201 36.0821 329.061 35.5117C328.587 35.2749 328.717 35.1651 328.571 35.4875C328.372 35.9248 328.407 36.5592 328.407 37.0364C328.407 38.1223 328.479 39.9264 329.061 40.8724C329.827 42.1169 330.6 42.9223 331.832 43.8372C333.048 44.7409 334.656 46.3179 336.273 46.3179C339.433 46.3179 342.787 45.6292 344.369 42.5545C345.039 41.2511 346.268 40.184 346.268 38.6942C346.268 37.4512 346.68 35.9617 346.268 34.7735C345.77 33.3332 344.526 31.9661 344.961 31.9661C344.739 32.0296 342.783 30.8528 341.912 31.2884Z" stroke="#00796B" stroke-opacity="0.5" stroke-width="1.66333px" stroke-linecap="round" stroke-linejoin="round" fill="none"></path><path d="M338.317 30.5248C337.092 30.0712 334.293 29.121 333.634 27.6387C333.125 26.4932 334.808 26.2773 335.704 26.2773C336.79 26.2773 338.077 27.7785 338.366 28.7278C338.527 29.2557 338.679 29.796 338.838 30.3312C338.914 30.5891 338.812 30.7762 338.759 31.0149C338.719 31.1967 337.057 30.3242 337.119 30.0743" stroke="#00796B" stroke-opacity="0.5" stroke-width="1.66333px" stroke-linecap="round" stroke-linejoin="round" fill="none"></path><path d="M316.752 55.0349L364.534 56.0844C369.636 56.1964 373.713 60.3641 373.713 65.4669C373.713 70.65 369.511 74.8517 364.328 74.8517H316.535C311.062 74.8517 306.625 70.415 306.625 64.9421C306.625 59.384 311.196 54.9129 316.752 55.0349Z" fill="#00796B" fill-opacity="0.5" stroke="#00796B" stroke-opacity="0.5" stroke-width="1.66333px"></path><path d="M353.971 55.8206C353.247 56.9423 352.623 58.2885 351.793 59.3261C351.375 59.848 351.442 59.7418 350.633 59.4421C349.282 58.9416 347.751 59.3003 346.341 59.3003C345.104 59.3003 343.665 58.6543 342.462 58.9781C341.069 59.3532 339.426 58.637 338.054 58.6044C336.402 58.565 334.827 58.7203 333.183 58.7203C332.192 58.7203 331.226 58.1404 330.309 58.1404C329.777 58.1404 328.26 58.5622 328.221 57.5862C328.202 57.1108 327.989 56.6491 327.989 56.1686C327.989 55.5187 328.378 55.8001 329.033 55.4727" stroke="#00796B" stroke-opacity="0.5" stroke-width="1.66333px" stroke-linecap="round" stroke-linejoin="round" fill="none"></path><path d="M373.396 303.597C369.692 294.863 371.209 287.253 371.209 278.202C371.209 276.441 371.529 271.077 369.679 270.117C366.76 268.603 364.033 267.593 360.59 267.593C358.301 267.593 356.002 267.659 353.714 267.593C351.425 267.527 349.209 266.596 346.946 266.319C342.736 265.804 338.358 266.522 334.201 266.522C330.9 266.522 327.485 266.95 324.311 266.95C323.747 266.95 321.449 267.219 321.079 267.546C319.946 268.545 320.27 270.148 319.378 271.022" stroke="#00796B" stroke-opacity="0.5" stroke-width="1.66333px" stroke-linecap="round" stroke-linejoin="round" fill="none"></path><path d="M319.596 271.797C319.452 274.374 319.398 277.991 318.338 280.51C317.65 282.142 318.198 284.314 318.059 286.052C317.792 289.389 318.289 292.641 318.289 295.878C318.289 300.22 318.071 304.507 318.071 308.826C318.071 312.533 321.693 311.912 324.557 311.391C327.032 310.941 330.352 311.843 332.931 311.875C337.907 311.937 342.905 312.311 347.888 312.311C352.05 312.311 355.14 311.102 358.973 309.649C361.019 308.872 362.256 309.044 364.454 309.044C366.536 309.044 368.248 308.718 370.335 309.37C371.556 309.752 373.743 309.423 374.438 308.172C375.27 306.673 373.615 306.023 373.615 304.796C373.615 303.766 373.744 300.82 373.397 303.598" stroke="#00796B" stroke-opacity="0.5" stroke-width="1.66333px" stroke-linecap="round" stroke-linejoin="round" fill="none"></path><path d="M348.566 277.46C348.566 277.46 347.695 277.896 346.824 278.767C345.953 279.421 344.119 279.094 342.576 279.094C341.765 279.094 340.908 278.461 340.18 278.138C338.706 277.483 339.586 278.715 339.938 279.421C340.329 280.202 339.883 281.654 339.176 282.143C338.01 282.951 336.856 282.254 335.715 281.684C335.242 281.447 335.372 281.337 335.225 281.659C335.026 282.097 335.062 282.731 335.062 283.208C335.062 284.294 335.133 286.098 335.715 287.044C336.481 288.289 337.255 289.094 338.486 290.009C339.703 290.913 341.31 292.49 342.927 292.49C346.087 292.49 349.442 291.801 351.023 288.726C351.693 287.423 352.923 286.356 352.923 284.866C352.923 283.623 353.334 282.134 352.923 280.945C352.424 279.505 351.18 278.138 351.616 278.138C351.394 278.201 349.438 277.025 348.566 277.46Z" stroke="#00796B" stroke-opacity="0.5" stroke-width="1.66333px" stroke-linecap="round" stroke-linejoin="round" fill="none"></path><path d="M344.972 276.697C343.746 276.243 340.947 275.293 340.289 273.811C339.78 272.665 341.462 272.449 342.358 272.449C343.444 272.449 344.731 273.95 345.02 274.9C345.181 275.428 345.334 275.968 345.492 276.503C345.569 276.761 345.466 276.948 345.413 277.187C345.373 277.369 343.711 276.496 343.774 276.246" stroke="#00796B" stroke-opacity="0.5" stroke-width="1.66333px" stroke-linecap="round" stroke-linejoin="round" fill="none"></path><path d="M250.264 47.7173C249.883 49.6738 248.916 50.9449 248.166 52.7254C247.656 53.9376 246.702 54.8764 246.17 56.0658C245.596 57.3503 244.737 58.8592 243.937 60.0025C243.25 60.9827 242.801 61.9114 241.935 62.777C240.405 64.3071 239.248 66.1304 237.711 67.6385C235.476 69.8308 231.693 72.691 228.437 72.5102C227.392 72.4521 226.234 72.7762 225.208 72.6214C224.328 72.4886 223.26 72.4441 222.378 72.5961C220.929 72.8459 219.357 72.5946 217.971 72.8943C217.223 73.056 216.409 72.8197 215.652 72.96C214.67 73.1418 213.519 73.1874 212.518 73.1874C209.243 73.1874 205.976 73.1676 202.709 72.7528C200.939 72.528 199.186 73.1148 197.433 72.8033C195.789 72.5109 193.598 72.8129 192.051 72.1362C190.15 71.3045 188.259 69.9965 186.791 68.528C186.054 67.7914 185.495 66.9116 184.997 66.0012C184.342 64.8052 183.977 63.5152 183.319 62.3221C181.023 58.1613 179.715 53.53 177.856 49.1929C177.418 48.1707 176.698 47.3426 176.173 46.3983C176.04 46.1594 175.98 45.8543 175.764 45.6251C174.953 44.767 176.506 44.6759 177.219 44.3516" stroke="#00796B" stroke-opacity="0.5" stroke-width="1.66333px" stroke-linecap="round" stroke-linejoin="round" fill="none"></path><path d="M250.627 47.8992C249.001 45.7722 247.622 44.2099 245.26 43.0073C243.282 42.0002 241.231 40.8041 239.443 39.49C236.697 37.4705 232.917 36.5705 229.574 35.9626C225.934 35.3009 222.352 34.5273 218.648 34.5273C217.502 34.5273 216.368 34.8724 215.221 34.8912C213.849 34.9137 212.474 34.9569 211.108 35.0731C209.012 35.2515 206.86 35.2094 204.761 35.2551C201.831 35.3187 199.027 36.835 196.099 37.0693C194.357 37.2087 192.325 37.4692 190.631 37.9436C189.996 38.1212 189.272 38.2421 188.68 38.5298C187.943 38.8877 187.427 39.4932 186.75 39.9145C184.564 41.2743 182.121 41.9138 179.76 42.9466C179.037 43.2632 177.792 43.8057 176.991 43.8057C175.888 43.8057 175.945 45.8421 175.945 43.8057" stroke="#00796B" stroke-opacity="0.5" stroke-width="1.66333px" stroke-linecap="round" stroke-linejoin="round" fill="none"></path><path d="M176.126 45.0781C177.475 46.8863 178.437 47.5748 180.351 48.6308C181.853 49.4598 183.518 50.0462 185.202 50.3541C186.774 50.6414 188.491 50.8684 190.084 50.9959C191.41 51.102 192.763 50.9477 194.117 51.102C197.179 51.4509 200.27 52.2403 203.223 53.1032C207.44 54.3352 211.512 54.464 215.867 54.7002C220.622 54.9579 225.389 54.5946 230.048 53.6288C231.619 53.3031 233.28 53.5955 234.879 53.5328C236.641 53.4637 238.366 52.9784 240.024 52.4058C240.721 52.1649 241.364 51.7943 242.096 51.6276C242.952 51.4324 243.823 51.5094 244.673 51.3042C245.858 51.0182 247.241 50.5007 248.241 49.8083C248.676 49.507 249.329 49.258 249.671 48.8026C249.771 48.6698 249.898 48.3743 249.898 48.2164C249.898 47.8399 250.207 47.935 249.716 48.2619" stroke="#00796B" stroke-opacity="0.5" stroke-width="1.66333px" stroke-linecap="round" stroke-linejoin="round" fill="none"></path><path d="M215.241 63.5455C214.134 63.4225 212.671 63.4436 213.128 62.0193C213.275 61.5621 213.646 61.5134 214.038 61.3825C215.208 60.9925 217.303 61.7478 217.742 62.9694C218.532 65.1616 217.038 67.5293 214.69 66.7697C214.051 66.563 212.918 66.1116 212.512 65.5315C212.024 64.8351 212.756 65.0408 213.24 64.3642" stroke="#00796B" stroke-opacity="0.5" stroke-width="1.66333px" stroke-linecap="round" stroke-linejoin="round" fill="none"></path><path d="M218.608 61.1803C216.843 60.4723 215.941 60.1797 214.156 60.1797C213.437 60.1797 213.077 60.129 212.443 60.5436C211.395 61.2285 211.035 62.5303 211.144 63.6768C211.236 64.6449 211.557 65.9718 211.897 66.8909C212.15 67.5745 212.777 67.6925 213.418 67.8207C214.004 67.938 215.282 67.6102 215.743 67.8662C216.232 68.138 217.729 68.2296 218.108 67.7247C218.456 67.2602 218.83 67.06 219.083 66.4967C219.325 65.9589 219.434 65.4449 219.629 64.9099C219.896 64.175 220.376 62.1684 219.381 61.7261C218.798 61.4669 218.548 61.3117 217.88 61.3117C217.691 61.3117 217.528 61.4532 217.335 61.4532C217.055 61.4532 217.874 61.2713 218.153 61.2713" stroke="#00796B" stroke-opacity="0.5" stroke-width="1.66333px" stroke-linecap="round" stroke-linejoin="round" fill="none"></path><path d="M215.424 53.9023C214.141 52.2432 212.97 50.5323 211.644 48.9195C210.931 48.053 210.046 47.3078 209.279 46.4786C207.08 44.1044 204.84 41.5059 203.164 38.7314C201.513 35.9983 199.259 33.0219 196.811 30.9691C195.519 29.8848 194.363 28.6864 193.239 27.4366C192.147 26.2241 191.645 24.5283 190.611 23.2472C189.81 22.2551 184.569 15.5035 183.657 19.6086C183.298 21.2216 184.872 22.35 185.86 23.3382C186.982 24.4596 188.108 25.8843 189.064 27.1587C189.986 28.3873 191.106 29.4673 192 30.7063C193.218 32.3921 195.433 33.598 196.321 35.5072C197.054 37.0823 198.269 38.3481 199.182 39.8078C200.446 41.8308 201.927 43.5204 203.416 45.3718C204.597 46.8389 206.446 48.045 207.282 49.7179C207.981 51.1153 209.22 51.7043 210.35 52.6086C210.842 53.0023 211.44 53.2208 211.876 53.7659C212.021 53.9472 212.281 54.1568 212.417 53.9529C212.494 53.8366 212.79 54.0973 212.735 54.2257C212.541 54.6782 213.013 53.1373 213.059 52.9927" stroke="#00796B" stroke-opacity="0.5" stroke-width="1.66333px" stroke-linecap="round" stroke-linejoin="round" fill="none"></path><path d="M216.15 54.358C215.802 54.5347 213.603 56.2037 213.603 54.8583C213.603 54.451 213.08 53.7722 212.896 53.3574C212.756 53.0437 214.013 53.3443 214.2 53.5848C214.444 53.899 214.918 54.1541 214.149 54.1761C213.559 54.1929 213.097 53.939 212.648 53.5898C212.519 53.4895 210.784 53.7642 212.33 53.7212C213.152 53.6984 213.951 53.7212 214.74 53.7212C215.423 53.7212 214.04 53.5393 213.841 53.5393C213.682 53.5393 214.994 54.3198 215.221 54.0649C215.276 54.0029 215.371 53.832 215.15 53.7212" stroke="#00796B" stroke-opacity="0.5" stroke-width="1.66333px" stroke-linecap="round" stroke-linejoin="round" fill="none"></path><path d="M245.078 47.626C244.976 47.6803 241.725 49.3824 241.712 49.1724C241.697 48.918 241.879 48.6964 241.753 48.4447C241.203 47.3447 240.491 47.8721 239.544 48.2981C238.806 48.6305 239.927 44.9505 237.7 46.5041C236.549 47.3069 236.242 47.179 236.431 45.832C236.575 44.812 236.222 44.8091 235.345 44.9173C234.748 44.9908 234.321 45.121 233.98 44.5534C233.567 43.8648 233.102 43.473 232.257 43.7701C231.557 44.0165 230.935 44.7093 230.453 43.8257C230.241 43.437 230.42 42.2735 229.751 42.4966C229.331 42.6365 228.778 43.1842 228.3 43.0121C227.938 42.8817 227.66 41.7582 227.249 41.9357C226.821 42.1208 226.384 42.9337 225.844 42.7392C225.583 42.6453 225.1 41.7928 225.612 41.8952" stroke="#00796B" stroke-opacity="0.5" stroke-width="1.66333px" stroke-linecap="round" stroke-linejoin="round" fill="none"></path><path d="M232.252 45.9882C231.124 46.9056 226.902 51.8059 225.662 48.1461C225.44 47.4907 225.405 46.1923 224.783 47.2667C224.27 48.1522 223.498 48.7669 222.66 47.9288C222.105 47.3734 221.858 46.4307 221.063 46.1398C220.334 45.8729 219.799 47.2432 219.193 46.443C218.705 45.7977 218.941 44.6879 219.658 44.3003C219.894 44.1731 219.959 44.6113 220.063 44.7147" stroke="#00796B" stroke-opacity="0.5" stroke-width="1.66333px" stroke-linecap="round" stroke-linejoin="round" fill="none"></path><path d="M222.52 40.3493C220.763 40.0475 218.55 39.4331 217.213 41.0063C216.594 41.7354 216.652 42.6665 217.062 43.4926C217.361 44.0965 218.165 44.3976 218.679 43.8059C219.1 43.3206 218.231 42.5204 217.921 42.2242C216.856 41.209 215.278 42.8345 214.944 43.9373C214.666 44.8586 217.184 46.9932 216.88 46.0801" stroke="#00796B" stroke-opacity="0.5" stroke-width="1.66333px" stroke-linecap="round" stroke-linejoin="round" fill="none"></path><path d="M192.955 43.4409C192.433 43.2615 189.077 42.1806 189.721 43.9665C190.052 44.8827 191.317 45.3743 192.147 45.6746C192.539 45.8166 193.553 45.7921 192.895 45.2198C192.324 44.7243 191.521 44.4918 190.772 44.5527C187.853 44.79 191.935 48.1432 192.773 48.6057C194.402 49.5042 196.618 50.4495 198.322 49.3536" stroke="#00796B" stroke-opacity="0.5" stroke-width="1.66333px" stroke-linecap="round" stroke-linejoin="round" fill="none"></path><path d="M210.876 38.0742C210.183 39.2007 209.35 40.3325 208.758 41.5157C208.555 41.923 209.436 40.8803 209.643 40.4747C209.697 40.3673 210.077 39.173 210.113 39.181C210.556 39.2794 210.66 41.308 210.78 41.6825C211.346 43.4535 212.747 42.775 214.12 42.6427C215.783 42.4824 216.526 44.1225 217.445 45.1695C218.181 46.0072 218.47 46.2643 217.971 47.2617C217.567 48.0687 217.4 48.8512 217.971 49.5813C218.417 50.1509 218.975 50.5109 219.512 50.9811C220.005 51.4119 219.299 51.341 219.391 51.0822C219.643 50.3757 221.201 50.5229 221.711 50.5566C223.604 50.6818 225.532 50.2069 227.391 50.3241C228.378 50.3864 229.308 50.9372 230.287 51.0822C231.281 51.2294 229.967 52.0922 229.594 52.3405C228.953 52.7677 230.849 51.4318 231.545 51.1024C232.712 50.5498 233.791 50.122 234.395 48.899C235.001 47.6732 235.534 46.8374 236.558 45.9376C236.911 45.6274 236.953 45.1555 236.78 44.7349C236.381 43.7604 235.495 42.9672 234.617 42.4405" stroke="#00796B" stroke-opacity="0.5" stroke-width="1.66333px" stroke-linecap="round" stroke-linejoin="round" fill="none"></path><path d="M211.057 41.7131C213.337 40.1217 215.218 39.4364 217.899 39.0751C218.842 38.9481 219.847 38.2956 220.462 37.5742C221.007 36.934 220.698 37.1034 221.341 37.9734C222.219 39.1619 222.872 38.0951 223.994 38.4081C225.714 38.8877 227.191 40.4868 228.936 40.7832C229.414 40.8644 229.299 40.0646 229.897 40.4093C230.903 40.9897 231.672 41.5388 232.848 41.7232C233.559 41.8348 234.907 42.3031 234.799 43.1685" stroke="#00796B" stroke-opacity="0.5" stroke-width="1.66333px" stroke-linecap="round" stroke-linejoin="round" fill="none"></path><path d="M195.594 41.7129C193.393 41.925 191.164 41.8976 188.974 42.1323C188.202 42.215 187.808 42.5267 187.265 43.0319C186.776 43.4876 186.012 44.5602 185.31 44.6187C184.297 44.7031 183.774 44.2825 182.828 43.987C182.259 43.8091 180.443 43.987 181.039 43.987" stroke="#00796B" stroke-opacity="0.5" stroke-width="1.66333px" stroke-linecap="round" stroke-linejoin="round" fill="none"></path><path d="M197.231 44.1699C199.597 45.7285 200.86 48.0923 203.392 49.5116C203.893 49.7926 205.428 50.3366 205.312 51.2601C205.229 51.9284 200.104 49.8361 199.324 49.4459" stroke="#00796B" stroke-opacity="0.5" stroke-width="1.66333px" stroke-linecap="round" stroke-linejoin="round" fill="none"></path><path d="M188.406 46.3516C187.12 47.3089 186.011 48.6771 184.404 48.1911C183.969 48.0595 183.059 48.0082 182.766 47.716" stroke="#00796B" stroke-opacity="0.5" stroke-width="1.66333px" stroke-linecap="round" stroke-linejoin="round" fill="none"></path><path d="M98.9004 229.02C98.52 230.977 97.5528 232.248 96.8031 234.028C96.2927 235.24 95.3384 236.179 94.807 237.369C94.233 238.653 93.3736 240.162 92.5733 241.305C91.8872 242.285 91.4376 243.214 90.5721 244.08C89.042 245.61 87.8844 247.433 86.3473 248.941C84.1128 251.134 80.3293 253.994 77.0739 253.813C76.0283 253.755 74.8704 254.079 73.8447 253.924C72.9648 253.791 71.8963 253.747 71.0147 253.899C69.5658 254.149 67.9938 253.897 66.6079 254.197C65.8599 254.359 65.0457 254.122 64.2883 254.263C63.3064 254.445 62.1559 254.49 61.1551 254.49C57.8798 254.49 54.6128 254.47 51.3461 254.055C49.5761 253.831 47.8223 254.418 46.0701 254.106C44.4255 253.814 42.2348 254.116 40.688 253.439C38.787 252.607 36.8957 251.299 35.4272 249.831C34.6907 249.094 34.1318 248.214 33.6332 247.304C32.9783 246.108 32.6137 244.818 31.9554 243.625C29.6598 239.464 28.3512 234.833 26.4925 230.496C26.0544 229.473 25.3343 228.645 24.8096 227.701C24.6769 227.462 24.6168 227.157 24.4003 226.928C23.5899 226.07 25.1423 225.979 25.8557 225.654" stroke="#00796B" stroke-opacity="0.5" stroke-width="1.66333px" stroke-linecap="round" stroke-linejoin="round" fill="none"></path><path d="M99.2637 229.202C97.638 227.075 96.259 225.513 93.8968 224.31C91.9186 223.303 89.8672 222.107 88.0801 220.793C85.3335 218.773 81.554 217.873 78.2104 217.265C74.571 216.604 70.9889 215.83 67.2845 215.83C66.1385 215.83 65.0043 216.175 63.8582 216.194C62.4859 216.216 61.1103 216.26 59.7446 216.376C57.6483 216.554 55.4968 216.512 53.3972 216.558C50.4681 216.621 47.6641 218.138 44.7354 218.372C42.9933 218.511 40.9616 218.772 39.2674 219.246C38.6329 219.424 37.909 219.545 37.3167 219.833C36.5799 220.19 36.0633 220.796 35.3862 221.217C33.2009 222.577 30.7579 223.217 28.3971 224.249C27.6736 224.566 26.4291 225.108 25.6277 225.108C24.5246 225.108 24.5817 227.145 24.5817 225.108" stroke="#00796B" stroke-opacity="0.5" stroke-width="1.66333px" stroke-linecap="round" stroke-linejoin="round" fill="none"></path><path d="M24.7627 226.381C26.1119 228.189 27.0735 228.878 28.9875 229.934C30.4902 230.763 32.1547 231.349 33.839 231.657C35.4107 231.944 37.1277 232.171 38.7208 232.299C40.0469 232.405 41.3993 232.25 42.7535 232.405C45.816 232.754 48.9063 233.543 51.8601 234.406C56.0771 235.638 60.1491 235.767 64.5042 236.003C69.2586 236.261 74.0259 235.897 78.6846 234.932C80.2556 234.606 81.9165 234.898 83.5158 234.836C85.2773 234.766 87.003 234.281 88.6604 233.709C89.3579 233.468 90.0008 233.097 90.7324 232.93C91.5889 232.735 92.4595 232.812 93.3097 232.607C94.4944 232.321 95.8773 231.803 96.8775 231.111C97.3127 230.81 97.9662 230.561 98.3077 230.105C98.4073 229.973 98.5351 229.677 98.5351 229.519C98.5351 229.143 98.8436 229.238 98.3532 229.565" stroke="#00796B" stroke-opacity="0.5" stroke-width="1.66333px" stroke-linecap="round" stroke-linejoin="round" fill="none"></path><path d="M63.8776 244.848C62.7705 244.725 61.3074 244.746 61.7652 243.322C61.9121 242.865 62.2824 242.816 62.6748 242.685C63.8449 242.295 65.9393 243.05 66.3791 244.272C67.1683 246.464 65.6747 248.832 63.3267 248.072C62.688 247.866 61.5547 247.414 61.1486 246.834C60.6611 246.138 61.393 246.344 61.8764 245.667" stroke="#00796B" stroke-opacity="0.5" stroke-width="1.66333px" stroke-linecap="round" stroke-linejoin="round" fill="none"></path><path d="M67.2449 242.483C65.4802 241.775 64.5773 241.482 62.7927 241.482C62.0733 241.482 61.7136 241.432 61.0795 241.846C60.032 242.531 59.6715 243.833 59.7807 244.98C59.8729 245.948 60.1933 247.275 60.5337 248.194C60.7869 248.877 61.4136 248.995 62.0548 249.123C62.641 249.241 63.9187 248.913 64.3795 249.169C64.8687 249.441 66.3659 249.532 66.7446 249.027C67.0929 248.563 67.4664 248.363 67.7199 247.799C67.9619 247.262 68.0711 246.748 68.2657 246.213C68.5329 245.478 69.0132 243.471 68.0181 243.029C67.4349 242.77 67.1852 242.614 66.5172 242.614C66.3276 242.614 66.1652 242.756 65.9714 242.756C65.6918 242.756 66.5105 242.574 66.7901 242.574" stroke="#00796B" stroke-opacity="0.5" stroke-width="1.66333px" stroke-linecap="round" stroke-linejoin="round" fill="none"></path><path d="M64.0605 235.205C62.7775 233.546 61.6066 231.835 60.2805 230.222C59.5681 229.356 58.6831 228.61 57.9154 227.781C55.717 225.407 53.4768 222.809 51.8005 220.034C50.1492 217.301 47.8957 214.325 45.4482 212.272C44.1553 211.188 43 209.989 41.8753 208.739C40.784 207.527 40.2813 205.831 39.2474 204.55C38.4467 203.558 33.2059 196.806 32.2936 200.911C31.9352 202.524 33.5088 203.653 34.497 204.641C35.6184 205.762 36.7452 207.187 37.701 208.461C38.6224 209.69 39.7423 210.77 40.6371 212.009C41.8546 213.695 44.0699 214.901 44.958 216.81C45.6905 218.385 46.906 219.651 47.8183 221.111C49.0827 223.134 50.564 224.823 52.0532 226.675C53.2333 228.142 55.0827 229.348 55.9192 231.021C56.6179 232.418 57.8564 233.007 58.9867 233.911C59.4788 234.305 60.0768 234.523 60.5129 235.069C60.658 235.25 60.9177 235.46 61.0537 235.256C61.1312 235.139 61.4271 235.4 61.372 235.528C61.1781 235.981 61.6498 234.44 61.6955 234.295" stroke="#00796B" stroke-opacity="0.5" stroke-width="1.66333px" stroke-linecap="round" stroke-linejoin="round" fill="none"></path><path d="M64.7871 235.661C64.4385 235.837 62.2401 237.506 62.2401 236.161C62.2401 235.754 61.717 235.075 61.5326 234.66C61.3932 234.346 62.6494 234.647 62.8364 234.888C63.0808 235.202 63.5545 235.457 62.7859 235.479C62.1954 235.496 61.7339 235.242 61.285 234.893C61.156 234.792 59.4205 235.067 60.9666 235.024C61.7888 235.001 62.5878 235.024 63.3772 235.024C64.0595 235.024 62.6768 234.842 62.4776 234.842C62.3186 234.842 63.6307 235.623 63.8572 235.368C63.9124 235.306 64.008 235.135 63.7865 235.024" stroke="#00796B" stroke-opacity="0.5" stroke-width="1.66333px" stroke-linecap="round" stroke-linejoin="round" fill="none"></path><path d="M93.7148 228.929C93.6125 228.983 90.3615 230.685 90.3492 230.475C90.3342 230.221 90.5154 229.999 90.3896 229.747C89.8396 228.647 89.1278 229.175 88.1812 229.601C87.4426 229.933 88.5634 226.253 86.3366 227.807C85.186 228.61 84.8791 228.482 85.0681 227.135C85.2113 226.115 84.8591 226.112 83.9816 226.22C83.3851 226.294 82.9577 226.424 82.6172 225.856C82.204 225.168 81.7384 224.776 80.8939 225.073C80.1936 225.319 79.5717 226.012 79.0897 225.128C78.8777 224.74 79.0566 223.576 78.3873 223.799C77.9677 223.939 77.4151 224.487 76.9369 224.315C76.5746 224.184 76.2963 223.061 75.8858 223.238C75.4576 223.424 75.0211 224.236 74.4809 224.042C74.22 223.948 73.7363 223.096 74.2484 223.198" stroke="#00796B" stroke-opacity="0.5" stroke-width="1.66333px" stroke-linecap="round" stroke-linejoin="round" fill="none"></path><path d="M80.8887 227.291C79.7612 228.208 75.5384 233.109 74.2988 229.449C74.0768 228.793 74.0415 227.495 73.4195 228.569C72.9068 229.455 72.1351 230.07 71.2969 229.232C70.7416 228.676 70.4943 227.733 69.7 227.443C68.9712 227.176 68.4361 228.546 67.8302 227.746C67.3416 227.1 67.578 225.991 68.2951 225.603C68.5304 225.476 68.596 225.914 68.6994 226.017" stroke="#00796B" stroke-opacity="0.5" stroke-width="1.66333px" stroke-linecap="round" stroke-linejoin="round" fill="none"></path><path d="M71.1562 221.652C69.3995 221.35 67.1864 220.736 65.85 222.309C65.2305 223.038 65.2892 223.969 65.6984 224.795C65.9975 225.399 66.802 225.7 67.3155 225.109C67.7368 224.623 66.8681 223.823 66.5575 223.527C65.4928 222.512 63.9143 224.137 63.5809 225.24C63.3024 226.161 65.8208 228.296 65.5164 227.383" stroke="#00796B" stroke-opacity="0.5" stroke-width="1.66333px" stroke-linecap="round" stroke-linejoin="round" fill="none"></path><path d="M41.5921 224.744C41.0699 224.564 37.7134 223.483 38.3578 225.269C38.6884 226.185 39.9533 226.677 40.7835 226.977C41.1761 227.119 42.1901 227.095 41.5314 226.523C40.9612 226.027 40.1577 225.795 39.4089 225.855C36.4899 226.093 40.5719 229.446 41.4101 229.908C43.0387 230.807 45.2542 231.752 46.959 230.656" stroke="#00796B" stroke-opacity="0.5" stroke-width="1.66333px" stroke-linecap="round" stroke-linejoin="round" fill="none"></path><path d="M59.5124 219.377C58.82 220.503 57.9866 221.635 57.3949 222.818C57.1913 223.226 58.0724 222.183 58.2793 221.777C58.3341 221.67 58.7133 220.476 58.7493 220.484C59.1924 220.582 59.2965 222.611 59.4164 222.985C59.9831 224.756 61.3834 224.078 62.7568 223.945C64.4195 223.785 65.1631 225.425 66.0821 226.472C66.8174 227.31 67.1063 227.567 66.6076 228.564C66.2041 229.371 66.0363 230.154 66.6076 230.884C67.0535 231.454 67.6116 231.814 68.149 232.284C68.6414 232.715 67.9353 232.644 68.0277 232.385C68.28 231.678 69.8372 231.826 70.3473 231.859C72.2404 231.984 74.1689 231.51 76.0275 231.627C77.015 231.689 77.9445 232.24 78.9233 232.385C79.9173 232.532 78.6033 233.395 78.2309 233.643C77.5901 234.07 79.4855 232.735 80.1816 232.405C81.3491 231.853 82.4276 231.425 83.0318 230.202C83.6375 228.976 84.1709 228.14 85.1948 227.24C85.5478 226.93 85.5895 226.458 85.4171 226.038C85.0177 225.063 84.132 224.27 83.2542 223.743" stroke="#00796B" stroke-opacity="0.5" stroke-width="1.66333px" stroke-linecap="round" stroke-linejoin="round" fill="none"></path><path d="M59.6935 223.016C61.9737 221.424 63.8552 220.739 66.536 220.378C67.4785 220.251 68.4837 219.598 69.0982 218.877C69.6436 218.237 69.3344 218.406 69.9775 219.276C70.856 220.465 71.5083 219.398 72.6307 219.711C74.3509 220.19 75.8274 221.79 77.5731 222.086C78.0511 222.167 77.9359 221.367 78.5333 221.712C79.5393 222.292 80.3087 222.841 81.4846 223.026C82.1957 223.138 83.5434 223.606 83.4353 224.471" stroke="#00796B" stroke-opacity="0.5" stroke-width="1.66333px" stroke-linecap="round" stroke-linejoin="round" fill="none"></path><path d="M44.2305 223.016C42.0302 223.228 39.8008 223.2 37.6103 223.435C36.8389 223.518 36.4448 223.829 35.9021 224.335C35.4127 224.79 34.6487 225.863 33.9464 225.921C32.9338 226.006 32.4105 225.585 31.4651 225.29C30.8959 225.112 29.0798 225.29 29.6761 225.29" stroke="#00796B" stroke-opacity="0.5" stroke-width="1.66333px" stroke-linecap="round" stroke-linejoin="round" fill="none"></path><path d="M45.8682 225.473C48.2334 227.031 49.4968 229.395 52.0285 230.814C52.5298 231.095 54.0643 231.639 53.9489 232.563C53.8654 233.231 48.7408 231.139 47.9604 230.749" stroke="#00796B" stroke-opacity="0.5" stroke-width="1.66333px" stroke-linecap="round" stroke-linejoin="round" fill="none"></path><path d="M37.043 227.654C35.7569 228.612 34.6481 229.98 33.0405 229.494C32.6055 229.362 31.6953 229.311 31.4032 229.019" stroke="#00796B" stroke-opacity="0.5" stroke-width="1.66333px" stroke-linecap="round" stroke-linejoin="round" fill="none"></path><path d="M126.006 28.4648C126.943 29.7945 128.164 30.9352 128.815 32.4239C129.049 32.9586 129.127 33.5389 129.376 34.0558C129.629 34.5817 129.933 35.1979 130.121 35.7444C130.492 36.8242 131.363 37.6674 131.958 38.6038C132.309 39.1546 132.888 40.0121 133.427 40.4059C133.702 40.6064 134.437 41.5697 134.112 41.6511C133.354 41.8406 132.711 42.2437 132.037 42.6409C131.109 43.1871 130.185 43.5992 129.358 44.2976C128.312 45.1805 127.072 45.8095 126.048 46.7241C125.246 47.4412 124.549 48.2721 123.735 48.9839C123.033 49.5985 122.187 50.0516 121.472 50.6548C121.419 50.6993 120.91 51.1268 120.972 51.2189C121.035 51.3139 121.794 50.3393 121.855 50.2397" stroke="#00796B" stroke-opacity="0.5" stroke-width="1.66333px" stroke-linecap="round" stroke-linejoin="round" fill="none"></path><path d="M109.786 27.3789C111.281 30.931 112.915 34.4204 114.398 37.979C115.317 40.1863 116.091 42.4177 116.874 44.6803C117.49 46.4589 118.252 48.1945 118.917 49.952C119.148 50.5623 119.307 51.1855 119.442 51.8216C119.664 52.8627 119.641 51.6504 119.62 51.1972" stroke="#00796B" stroke-opacity="0.5" stroke-width="1.66333px" stroke-linecap="round" stroke-linejoin="round" fill="none"></path><path d="M106.465 26.6133C105.163 28.0959 103.917 29.5877 102.534 30.991C101.404 32.1378 100.904 33.795 100.271 35.2338C99.6138 36.7269 98.9562 37.9633 97.9861 39.2568C97.8714 39.4098 97.5321 39.7887 97.5321 39.9876C97.5321 40.0832 97.9899 40.0805 98.0642 40.0904C98.3171 40.1242 98.6185 40.3384 98.8305 40.47C102.676 42.8566 105.275 46.3061 107.536 50.1265C107.923 50.7793 108.209 51.724 108.767 52.2266C109.128 52.5511 109.422 52.9779 109.849 53.1916C110.251 53.3925 109.966 52.6814 109.913 52.2834" stroke="#00796B" stroke-opacity="0.5" stroke-width="1.66333px" stroke-linecap="round" stroke-linejoin="round" fill="none"></path><path d="M36.2385 35.6398C38.8209 36.0218 41.8595 36.2234 42.4746 39.2987C42.9512 41.6819 42.7708 44.1347 41.3423 46.2023C38.9012 49.7354 35.2744 51.7975 30.9065 51.0695C27.001 50.4186 21.6369 46.8795 21.6369 42.4843C21.6369 40.0057 23.4217 37.5114 24.8986 35.6567C26.4816 33.6688 27.8492 31.5786 29.8418 29.953C32.5295 27.7604 34.7006 27.5452 37.1173 30.1304C38.4397 31.5451 39.6903 33.475 40.2691 35.3272C40.5544 36.2402 40.3452 36.9721 40.3452 37.8875C40.3452 39.1075 40.5715 37.3082 40.3452 36.7045" stroke="#00796B" stroke-opacity="0.5" stroke-width="1.66333px" stroke-linecap="round" stroke-linejoin="round" fill="none"></path><path d="M22.8535 42.6236C20.6559 44.5749 18.7931 46.3397 14.9071 46.4349C12.1861 46.5016 9.46632 45.8224 6.91655 45.0915C5.09119 44.5682 -0.761543 41.7964 3.9808 41.5723" stroke="#00796B" stroke-opacity="0.5" stroke-width="1.66333px" stroke-linecap="round" stroke-linejoin="round" fill="none"></path><path d="M0.191307 25.602C3.09129 28.8046 7.09415 35.0803 5.59084 39.8909C5.06221 41.5825 4.29442 42.7215 3.3009 44.1666C1.30145 47.0749 -1.7974 46.1685 -4.60828 45.4088C-6.64603 44.858 -9.06721 43.1231 -9.84726 41.15C-10.9239 38.4268 -8.68019 34.1693 -6.80527 32.2944C-4.7119 30.201 -3.0536 27.6542 -0.72129 25.8217C-0.100699 25.3341 0.370532 24.8053 1.17995 24.9852C2.08986 25.1874 2.4645 26.0583 1.256 26.0583" stroke="#00796B" stroke-opacity="0.5" stroke-width="1.66333px" stroke-linecap="round" stroke-linejoin="round" fill="none"></path><path d="M17.3789 59.5209C17.1191 62.4657 16.7677 65.4832 14.3369 67.4639C12.0117 69.3585 9.87291 67.2387 8.86133 64.9627C7.90437 62.8095 8.0241 61.0407 8.52333 58.7942C8.89488 57.1222 8.42287 57.642 10.0781 58.3041" stroke="#00796B" stroke-opacity="0.5" stroke-width="1.66333px" stroke-linecap="round" stroke-linejoin="round" fill="none"></path><path d="M287.031 292.987C289.098 293.292 291.53 293.454 292.022 295.915C292.403 297.822 292.259 299.786 291.116 301.44C289.162 304.268 286.259 305.918 282.763 305.336C279.638 304.815 275.344 301.982 275.344 298.465C275.344 296.481 276.773 294.485 277.955 293C279.222 291.409 280.316 289.736 281.911 288.435C284.062 286.68 285.8 286.508 287.734 288.577C288.792 289.71 289.793 291.254 290.257 292.736C290.485 293.467 290.317 294.053 290.317 294.786C290.317 295.762 290.499 294.322 290.317 293.839" stroke="#00796B" stroke-opacity="0.5" stroke-width="1.66333px" stroke-linecap="round" stroke-linejoin="round" fill="none"></path><path d="M276.318 298.576C274.559 300.137 273.069 301.55 269.958 301.626C267.781 301.68 265.604 301.136 263.563 300.551C262.102 300.132 257.418 297.914 261.214 297.734" stroke="#00796B" stroke-opacity="0.5" stroke-width="1.66333px" stroke-linecap="round" stroke-linejoin="round" fill="none"></path><path d="M258.18 284.952C260.501 287.515 263.705 292.538 262.502 296.388C262.079 297.742 261.464 298.654 260.669 299.81C259.069 302.138 256.589 301.412 254.339 300.804C252.708 300.364 250.77 298.975 250.146 297.396C249.284 295.216 251.08 291.809 252.581 290.308C254.256 288.633 255.583 286.595 257.45 285.128C257.947 284.738 258.324 284.315 258.972 284.458C259.7 284.62 260 285.317 259.032 285.317" stroke="#00796B" stroke-opacity="0.5" stroke-width="1.66333px" stroke-linecap="round" stroke-linejoin="round" fill="none"></path><path d="M276.457 167.311C272.357 159.881 272.599 157.758 273.534 150.279C274.049 146.161 274.246 142.137 275.288 138.085C277.151 130.84 277.755 121.083 271.922 115.249C260.442 103.77 239.065 120.095 245.538 134.659C248.001 140.201 252.258 144.305 255.334 149.533C256.567 151.63 257.258 153.903 258.861 155.862C260.398 157.741 262.307 160.08 262.307 162.413C262.307 164.384 261.72 166.939 263.114 168.681C265.039 171.088 264.355 169.85 267.205 169.85C269.165 169.85 272.054 168.293 273.635 167.028C274.763 166.126 275.368 168.736 275.368 166.222C275.368 164.064 274.673 165.859 276.094 165.859" stroke="#00796B" stroke-opacity="0.5" stroke-width="1.66333px" stroke-linecap="round" stroke-linejoin="round" fill="none"></path><path d="M267.386 174.204C271.266 173.048 282.006 170.464 279.52 173.66C276.521 177.516 275.239 175.583 271.559 176.401C269.677 176.819 267.842 182.628 269.926 182.75C272.902 182.925 274.876 178.921 277.908 178.921C280.667 178.921 280.469 182.552 278.815 183.839C276.63 185.538 274.117 183.711 272.647 186.358C270.323 190.541 276.671 189.86 278.472 188.877C280.287 187.888 282.014 186.342 283.35 185.451" stroke="#00796B" stroke-opacity="0.5" stroke-width="1.66333px" stroke-linecap="round" stroke-linejoin="round" fill="none"></path><path d="M276.457 166.131C276.408 166.447 276.356 168.58 275.505 168.58C275.046 168.58 274.835 168.302 274.416 168.534C273.924 168.808 273.462 169.452 272.99 169.829C272.575 170.162 271.342 170.121 271.106 170.535C270.719 171.212 269.934 171.582 269.201 171.664C268.251 171.769 267.9 172.246 266.888 172.021C266.579 171.953 266.548 171.754 266.258 171.754C265.811 171.754 265.618 171.968 265.281 171.593C264.907 171.178 264.297 170.984 264.117 170.353C263.872 169.497 262.975 169.046 264.303 169.577" stroke="#00796B" stroke-opacity="0.5" stroke-width="1.66333px" stroke-linecap="round" stroke-linejoin="round" fill="none"></path><path d="M258.951 130.215C260.574 130.224 261.915 130.328 262.469 132.049C262.845 133.22 262.851 134.37 262.851 135.586C262.851 136.768 262.126 137.719 262.126 138.831C262.126 140.302 263.302 140.061 264.298 140.509C265.238 140.932 265.919 141.286 266.429 142.233C266.934 143.17 266.552 144.983 266.485 146.002C266.426 146.878 266.009 148.742 266.616 149.483C266.945 149.886 268.746 150.508 267.568 149.625" stroke="#00796B" stroke-opacity="0.5" stroke-width="1.66333px" stroke-linecap="round" stroke-linejoin="round" fill="none"></path><path d="M245.256 146.631C243.956 147.494 242.632 148.218 241.179 148.762C240.57 148.991 239.768 149.398 239.905 148.445" stroke="#00796B" stroke-opacity="0.5" stroke-width="1.66333px" stroke-linecap="round" stroke-linejoin="round" fill="none"></path><path d="M240.539 134.115C238.236 134.67 235.949 135.294 233.666 135.909C233.286 136.011 234.158 135.051 234.19 135.022" stroke="#00796B" stroke-opacity="0.5" stroke-width="1.66333px" stroke-linecap="round" stroke-linejoin="round" fill="none"></path><path d="M239.904 122.233C237.519 121.887 235.142 121.457 232.769 121.034C231.677 120.84 231.215 120.983 231.832 120.057" stroke="#00796B" stroke-opacity="0.5" stroke-width="1.66333px" stroke-linecap="round" stroke-linejoin="round" fill="none"></path><path d="M252.785 109.626C250.901 109.295 249.268 108.976 247.565 108.124C246.768 107.726 246 107.247 245.166 106.925C244.175 106.543 244.155 106.659 245.257 105.998" stroke="#00796B" stroke-opacity="0.5" stroke-width="1.66333px" stroke-linecap="round" stroke-linejoin="round" fill="none"></path><path d="M269.201 101.463C269.476 103.388 269.385 104.541 268.606 106.285C268.186 107.225 267.831 108.414 267.623 109.429C267.552 109.779 267.512 109.978 267.276 110.241C267.187 110.339 267.512 109.171 267.568 108.991" stroke="#00796B" stroke-opacity="0.5" stroke-width="1.66333px" stroke-linecap="round" stroke-linejoin="round" fill="none"></path><path d="M283.078 109.172C282.476 111.177 281.618 113.1 281.103 115.108C280.842 116.124 281.005 116.185 281.446 115.158" stroke="#00796B" stroke-opacity="0.5" stroke-width="1.66333px" stroke-linecap="round" stroke-linejoin="round" fill="none"></path><path d="M288.883 123.594C286.822 125.377 285.132 127.591 283.532 129.781C283.331 130.056 283.099 130.154 282.876 130.376C282.371 130.882 283.244 129.74 283.35 129.58" stroke="#00796B" stroke-opacity="0.5" stroke-width="1.66333px" stroke-linecap="round" stroke-linejoin="round" fill="none"></path><path d="M286.003 251.853C285.108 250.716 283.395 248.612 285.796 248.24C286.34 248.155 286.847 247.836 287.38 248.078C289.022 248.822 290.547 250.46 290.547 252.408C290.547 255.518 287.135 256.192 284.657 256.152C280.475 256.084 279.203 252.01 277.726 248.71C276.234 245.376 274.577 242.096 273.029 238.787C271.278 235.042 268.405 232.058 266.588 228.348C265.809 226.756 264.792 225.355 263.789 223.902C262.232 221.649 261.123 219.375 260.01 216.876C259.096 214.826 258.084 212.954 256.965 211.013C256.513 210.229 256.683 209.026 255.818 209.865C255.161 210.502 254.116 210.921 253.232 211.083C249.368 211.79 245.814 212.539 241.834 212.223C237.809 211.903 233.786 211.326 229.824 210.559C228.477 210.298 229.052 210.612 229.687 211.429C230.764 212.816 231.684 214.285 232.716 215.69C234.062 217.522 234.536 219.728 235.332 221.822C236.208 224.124 237.25 226.323 238.086 228.663C239.702 233.186 242.061 237.31 244.978 241.106C246.669 243.305 248.758 247.147 251.924 246.992C256.824 246.751 253.515 237.106 251.174 235.22C249.914 234.204 248.536 235.297 248.382 236.66C248.171 238.533 248.813 241.099 250.631 242.015C252.549 242.981 254.02 242.865 252.544 240.374C251.651 238.867 251.12 240.525 250.754 239.788" stroke="#00796B" stroke-opacity="0.5" stroke-width="1.66333px" stroke-linecap="round" stroke-linejoin="round" fill="none"></path><path d="M96.2966 170.649C96.089 167.382 96.2654 165.914 99.3437 164.802C100.495 164.386 102.216 164.606 103.081 165.496C104.845 167.312 104.282 169.39 103.569 171.553C101.54 177.714 91.5864 177.873 88.6031 172.155C87.1531 169.376 86.4105 165.935 85.3877 162.97C84.1185 159.291 82.0534 155.887 80.8422 152.178C79.5928 148.352 78.7168 144.441 77.3574 140.651C76.7359 138.918 76.214 135.18 74.7649 133.9C71.588 131.093 68.7855 136.055 68.5781 138.735C68.3777 141.324 67.6606 144.144 67.6606 146.64C67.6606 147.583 68.0424 148.502 68.4181 149.342C68.7255 150.03 70.1064 149.697 70.2279 149.033C70.5829 147.092 68.0594 144.175 71.903 144.599" stroke="#00796B" stroke-opacity="0.5" stroke-width="1.66333px" stroke-linecap="round" stroke-linejoin="round" fill="none"></path><path d="M123.94 117.939C125.146 114.363 125.725 108.706 130.599 109.356C132.523 109.612 133.738 110.205 134.891 111.742C138.835 117.001 129.605 123.974 126.981 116.477C124.073 108.167 128.303 103.095 130.695 95.4412C132.282 90.3631 128.434 106.154 125.326 110.472C124.376 111.791 121.546 116.541 119.36 115.784C115.132 114.32 116.548 104.724 120.822 103.775C125.25 102.791 120.19 113.602 118.936 114.821C114.23 119.397 106.608 109.014 109.39 104.082C110.377 102.334 112.742 101.217 114.163 103.197C115.939 105.671 114.243 109.193 112.508 111.146C111.396 112.397 109.763 108.589 109.621 108.086C108.969 105.772 109.483 104.264 110.776 102.427C112.128 100.506 111.017 103.079 110.699 103.813C109.867 105.733 109.002 108.462 106.773 109.086C103.296 110.06 99.9294 104.682 99.1902 101.831C98.7257 100.039 100.708 95.7473 102.77 95.5182C104.753 95.2978 105.034 100.971 104.733 102.158C104.408 103.438 103.899 106.507 102.116 106.507C99.7273 106.507 99.1006 103.735 99.3827 101.831C100.174 96.4865 106.811 92.0266 106.811 86.2996C106.811 83.7706 103.479 90.2003 102.462 92.5159C101.012 95.8179 99.3177 98.8456 97.6891 102.042C94.6182 108.071 92.8844 102.019 94.3596 98.0586C95.9772 93.7166 99.1984 87.5996 102.462 84.1441C103.063 83.508 99.881 86.7303 99.4212 87.4543C97.2828 90.8212 96.2581 94.6659 94.4943 98.1933C93.1006 100.981 88.4722 108.889 87.0656 101.253C86.1785 96.438 90.3412 92.3472 90.6837 87.7238C90.8378 85.6432 90.2945 87.4004 89.6445 88.5706C88.148 91.2641 87.0877 94.2172 85.6606 96.9616C85.0494 98.137 84.165 99.1309 83.2549 100.041C82.0349 101.261 84.3296 96.7568 84.7176 95.0756C85.1467 93.216 83.0908 84.6386 80.3681 88.917C78.7868 91.402 78.6835 98.0898 75.8069 91.977C75.2695 90.835 75.0529 80.7942 77.5968 81.6422C80.5127 82.6142 74.855 92.593 73.0356 93.8438C67.7154 97.5014 67.5852 84.7907 67.82 82.9124C67.9569 81.8172 68.2513 76.7312 69.9178 76.5229C72.3308 76.2212 70.5506 83.4314 70.168 84.1826C68.3155 87.8189 63.2786 81.2708 60.8916 82.1233C57.7799 83.2346 59.1436 90.0041 60.8916 91.9578C64.2385 95.6984 64.4562 87.163 64.0094 85.3758" stroke="#00796B" stroke-opacity="0.5" stroke-width="1.66333px" stroke-linecap="round" stroke-linejoin="round" fill="none"></path><path d="M94.8398 84.3368C93.2044 84.297 91.2576 84.6757 90.6828 82.9512" stroke="#00796B" stroke-opacity="0.5" stroke-width="1.66333px" stroke-linecap="round" stroke-linejoin="round" fill="none"></path><path d="M173.239 129.782C179.882 131.058 184.711 132.975 188.921 138.389C191.589 141.819 191.004 147.219 189.256 150.856C186.375 156.848 179.294 160.232 172.904 160.526C165.461 160.868 155.114 158.681 153.588 149.804C152.77 145.045 157.316 140.546 159.445 136.643C161.177 133.469 163.784 129.189 167.43 127.846C168.918 127.298 172.371 127.488 173.454 128.97C173.938 129.631 174.56 130.33 174.912 131.073C175.198 131.676 174.891 129.541 174.96 128.922" stroke="#00796B" stroke-opacity="0.5" stroke-width="1.66333px" stroke-linecap="round" stroke-linejoin="round" fill="none"></path><path d="M170.443 146.135C172.235 147.056 175.144 147.667 173.574 149.685C173.217 150.145 172.706 150.12 172.271 149.685C171.9 149.313 170.026 147.361 171.411 146.9C174.234 145.959 173.202 151.592 171.184 149.099C170.1 147.76 171.617 146.443 172.977 147.258C174.597 148.23 173.315 149.928 172.044 148.454C171.087 147.343 171.851 146.492 172.893 147.533C173.826 148.466 172.878 149.954 171.961 148.693C171.019 147.399 172.093 146.303 173.228 147.438C174.541 148.751 173.119 148.613 172.188 147.748C171.248 146.876 172.914 147.005 173.455 147.689C174.71 149.277 172.744 149.051 172.427 147.689C171.961 145.688 174.026 150.285 173.024 146.78" stroke="#00796B" stroke-opacity="0.5" stroke-width="1.66333px" stroke-linecap="round" stroke-linejoin="round" fill="none"></path><path d="M177.758 139.465C175.847 141.987 173.888 144.378 172.283 146.9C171.839 147.598 172.194 148.3 171.949 148.286C171.043 148.236 170.116 148.071 169.152 148.071C166.945 148.071 165.207 146.995 163.079 146.995C160.504 146.995 156.719 146.326 160.976 144.198" stroke="#00796B" stroke-opacity="0.5" stroke-width="1.66333px" stroke-linecap="round" stroke-linejoin="round" fill="none"></path><path d="M179.908 129.567C180.31 127.533 182.274 122.602 178.617 123.124C177.305 123.312 176.425 124.669 175.653 125.527C173.644 127.758 173.859 130.452 177.111 130.643C177.963 130.693 179.162 132.382 180.123 131.181C181.211 129.821 180.1 129.912 179.908 128.276C179.782 127.206 180.48 127.295 180.78 126.244C181.011 125.438 180.532 124.556 180.338 123.973" stroke="#00796B" stroke-opacity="0.5" stroke-width="1.66333px" stroke-linecap="round" stroke-linejoin="round" fill="none"></path><path d="M178.618 127.2C178.637 127.714 179.43 132.345 177.746 131.587C177.182 131.333 176.695 130.964 176.467 130.38C176.246 129.813 176.481 129.475 176.73 128.921C177.371 127.495 179.233 125.279 178.666 128.491C178.308 130.518 176.045 130.044 175.869 128.108C175.735 126.63 177.599 124.65 178.786 126.339C179.625 127.534 178.13 130.169 177.256 128.324C176.812 127.386 177.873 125.004 179.001 126.172C180.157 127.369 178.419 129.895 177.28 128.873C176.152 127.863 176.919 124.78 178.14 125.957C179.258 127.033 177.581 129.174 176.73 127.535C175.78 125.706 177.872 124.328 178.523 126.244C179.104 127.954 177.292 129.794 176.873 127.463C176.554 125.689 179.814 124.745 179.814 126.865C179.814 128.818 178.068 128.618 178.068 126.841C178.068 124.989 179.934 125.406 179.156 126.961C178.379 128.516 177.337 125.756 178.212 124.881C179.234 123.859 180.586 125.439 179.383 126.423C178.563 127.094 177.443 124.31 178.821 123.793C180.012 123.347 179.354 125.778 178.941 125.228C178.301 124.375 179.282 123.804 178.606 123.973C178.011 124.122 176.564 124.44 176.156 124.965C175.834 125.378 174.53 127.679 174.53 128.276C174.53 130.103 177.326 131.089 178.929 130.631C180.08 130.302 180.42 131.115 180.017 130.846C179.038 130.193 178.833 128.491 178.833 129.136" stroke="#00796B" stroke-opacity="0.5" stroke-width="1.66333px" stroke-linecap="round" stroke-linejoin="round" fill="none"></path><path d="M178.834 160.334C179.942 162.684 180.925 165.046 182.229 167.267C182.522 167.767 183.072 168.788 183.137 169.37C183.311 170.94 181.735 165.627 181.416 164.852" stroke="#00796B" stroke-opacity="0.5" stroke-width="1.66333px" stroke-linecap="round" stroke-linejoin="round" fill="none"></path><path d="M157.102 155.816C154.377 159.257 151.372 161.711 149.248 165.486C149.039 165.858 148.677 166.154 148.388 166.443C147.421 167.409 150.182 164.38 151.077 163.347" stroke="#00796B" stroke-opacity="0.5" stroke-width="1.66333px" stroke-linecap="round" stroke-linejoin="round" fill="none"></path><path d="M-3.07373 101.507C3.56905 102.782 8.39841 104.7 12.6087 110.113C15.2769 113.544 14.6918 118.943 12.9434 122.58C10.0624 128.573 2.98106 131.957 -3.40841 132.25C-10.8515 132.593 -21.1988 130.405 -22.7246 121.528C-23.5425 116.77 -18.9962 112.271 -16.8676 108.368C-15.1359 105.193 -12.5281 100.914 -8.88292 99.5706C-7.39496 99.0225 -3.94118 99.2128 -2.85857 100.694C-2.37493 101.356 -1.75242 102.055 -1.4003 102.798C-1.115 103.4 -1.42125 101.265 -1.35249 100.646" stroke="#00796B" stroke-opacity="0.5" stroke-width="1.66333px" stroke-linecap="round" stroke-linejoin="round" fill="none"></path><path d="M1.44531 111.189C-0.465781 113.711 -2.42452 116.103 -4.02919 118.624C-4.47389 119.323 -4.11892 120.024 -4.36387 120.011C-5.26923 119.961 -6.19645 119.796 -7.16089 119.796C-9.36783 119.796 -11.106 118.72 -13.233 118.72C-15.8088 118.72 -19.5931 118.051 -15.3368 115.923" stroke="#00796B" stroke-opacity="0.5" stroke-width="1.66333px" stroke-linecap="round" stroke-linejoin="round" fill="none"></path><path d="M3.59539 101.292C3.99721 99.2575 5.96122 94.3267 2.30446 94.8491C0.992328 95.0365 0.112003 96.3939 -0.659901 97.2516C-2.66814 99.483 -2.45334 102.176 0.798372 102.368C1.65017 102.418 2.84946 104.107 3.81054 102.905C4.89874 101.545 3.78783 101.637 3.59539 100.001C3.46948 98.9306 4.16778 99.0194 4.46796 97.9688C4.69823 97.1629 4.21992 96.2804 4.0257 95.6977" stroke="#00796B" stroke-opacity="0.5" stroke-width="1.66333px" stroke-linecap="round" stroke-linejoin="round" fill="none"></path><path d="M2.30579 98.9246C2.32494 99.4385 3.11738 104.069 1.43322 103.311C0.869274 103.058 0.382366 102.689 0.15424 102.104C-0.0668056 101.538 0.168142 101.199 0.417207 100.646C1.05891 99.2198 2.92044 97.0035 2.3536 100.216C1.99595 102.242 -0.267452 101.769 -0.443412 99.833C-0.577786 98.3549 1.28604 96.3747 2.47313 98.064C3.31278 99.2589 1.8174 101.894 0.943142 100.048C0.499241 99.1111 1.56069 96.7288 2.68829 97.8967C3.84442 99.0941 2.10691 101.62 0.967048 100.598C-0.160027 99.5876 0.606023 96.5051 1.82767 97.6815C2.94513 98.7576 1.2685 100.899 0.417207 99.2593C-0.532359 97.4305 1.5595 96.0525 2.21017 97.9684C2.79105 99.6788 0.979679 101.518 0.560644 99.1876C0.241691 97.4134 3.5011 96.4701 3.5011 98.5899C3.5011 100.543 1.75595 100.343 1.75595 98.566C1.75595 96.7139 3.62104 97.1308 2.84368 98.6856C2.06627 100.24 1.02418 97.4809 1.89939 96.6057C2.92103 95.5841 4.27354 97.1636 3.07079 98.1477C2.25094 98.8185 1.13005 96.0351 2.50899 95.518C3.6999 95.0714 3.0412 97.5026 2.62852 96.9524C1.98883 96.0994 2.96939 95.5284 2.29384 95.6973C1.69848 95.8461 0.251954 96.1642 -0.156539 96.6894C-0.478078 97.1028 -1.78215 99.4032 -1.78215 100C-1.78215 101.828 1.01309 102.813 2.61657 102.355C3.76738 102.026 4.10791 102.839 3.7043 102.57C2.72527 101.918 2.52095 100.215 2.52095 100.861" stroke="#00796B" stroke-opacity="0.5" stroke-width="1.66333px" stroke-linecap="round" stroke-linejoin="round" fill="none"></path><path d="M2.51941 132.059C3.62722 134.409 4.61043 136.77 5.91408 138.991C6.20768 139.492 6.75775 140.512 6.82251 141.095C6.99692 142.665 5.42027 137.352 5.10127 136.577" stroke="#00796B" stroke-opacity="0.5" stroke-width="1.66333px" stroke-linecap="round" stroke-linejoin="round" fill="none"></path><path d="M373.491 112.116C367.163 112.383 360.292 111.994 353.99 111.217C350.618 110.802 347.217 110.713 343.883 110.2C343.414 110.128 341.915 109.411 341.677 110.028C341.302 111.003 341.223 112.396 341.268 113.424C341.397 116.41 341.029 119.667 340.382 122.579C339.869 124.889 339.484 126.814 339.484 129.185C339.484 130.482 338.794 132.614 339.59 133.637C341.809 136.491 346.677 137.657 350.053 138.513C355.015 139.77 359.922 141.076 365.048 141.353C368.228 141.525 371.288 140.891 374.429 140.891C377.322 140.891 377.047 140.831 378.062 138.09C379.062 135.39 379.198 132.958 379.198 130.057C379.198 128.547 379.863 126.894 380.268 125.433C380.576 124.327 380.083 122.972 379.925 121.866C379.759 120.706 378.019 118.043 378.604 116.991C379.177 115.96 379.48 114.195 378.538 113.252C377.768 112.482 366.431 111.554 376.82 113.78" stroke="#00796B" stroke-opacity="0.5" stroke-width="1.66333px" stroke-linecap="round" stroke-linejoin="round" fill="none"></path><path d="M378.723 114.97C377.403 116.743 376.357 118.844 375.023 120.558C374.58 121.128 373.52 121.622 373.253 122.223C372.529 123.851 368.363 125.282 366.832 126.266C365.105 127.376 361.55 132.279 359.103 129.833C354.505 125.234 349.771 120.739 345.191 116.159C344.326 115.294 344.026 114.148 343.236 113.358C340.831 110.953 344.835 111.165 346.143 111.165" stroke="#00796B" stroke-opacity="0.5" stroke-width="1.66333px" stroke-linecap="round" stroke-linejoin="round" fill="none"></path><path d="M79.0806 281.776C72.7528 282.043 65.8822 281.654 59.5802 280.877C56.2081 280.462 52.8067 280.373 49.4733 279.86C49.0035 279.788 47.5045 279.071 47.2669 279.688C46.8919 280.663 46.8127 282.056 46.8574 283.084C46.9872 286.07 46.6193 289.328 45.9722 292.239C45.4589 294.549 45.0738 296.475 45.0738 298.845C45.0738 300.142 44.3834 302.274 45.1795 303.298C47.3988 306.151 52.2666 307.317 55.6431 308.173C60.6046 309.431 65.5119 310.736 70.6383 311.013C73.8182 311.185 76.8779 310.551 80.0186 310.551C82.9116 310.551 82.6364 310.491 83.6518 307.75C84.6519 305.05 84.788 302.618 84.788 299.717C84.788 298.207 85.4524 296.554 85.8581 295.093C86.1655 293.987 85.6727 292.632 85.5146 291.526C85.3489 290.366 83.609 287.703 84.1935 286.651C84.7663 285.62 85.0702 283.855 84.1274 282.912C83.3576 282.142 72.0208 281.214 82.4099 283.441" stroke="#00796B" stroke-opacity="0.5" stroke-width="1.66333px" stroke-linecap="round" stroke-linejoin="round" fill="none"></path><path d="M84.3125 284.63C82.9927 286.404 81.9465 288.504 80.6132 290.219C80.1701 290.788 79.1102 291.282 78.8429 291.883C78.1192 293.512 73.9525 294.942 72.422 295.926C70.6944 297.037 67.1395 301.939 64.6932 299.493C60.0947 294.895 55.3612 290.399 50.7813 285.819C49.916 284.954 49.6161 283.808 48.826 283.018C46.4207 280.613 50.4244 280.825 51.7326 280.825" stroke="#00796B" stroke-opacity="0.5" stroke-width="1.66333px" stroke-linecap="round" stroke-linejoin="round" fill="none"></path><path d="M188.86 200.274C182.532 200.541 175.661 200.152 169.359 199.376C165.987 198.96 162.586 198.871 159.253 198.358C158.783 198.286 157.284 197.569 157.046 198.186C156.671 199.161 156.592 200.554 156.637 201.582C156.766 204.568 156.399 207.826 155.751 210.738C155.238 213.047 154.853 214.973 154.853 217.343C154.853 218.64 154.163 220.772 154.959 221.796C157.178 224.649 162.046 225.815 165.422 226.671C170.384 227.929 175.291 229.234 180.418 229.511C183.598 229.683 186.657 229.049 189.798 229.049C192.691 229.049 192.416 228.99 193.431 226.248C194.431 223.548 194.567 221.116 194.567 218.215C194.567 216.705 195.232 215.052 195.637 213.591C195.945 212.485 195.452 211.13 195.294 210.024C195.128 208.864 193.388 206.201 193.973 205.149C194.546 204.118 194.85 202.353 193.907 201.41C193.137 200.64 181.8 199.712 192.189 201.939" stroke="#00796B" stroke-opacity="0.5" stroke-width="1.66333px" stroke-linecap="round" stroke-linejoin="round" fill="none"></path><path d="M194.092 203.128C192.772 204.902 191.726 207.002 190.393 208.717C189.949 209.286 188.889 209.78 188.622 210.381C187.898 212.01 183.732 213.44 182.201 214.424C180.474 215.535 176.919 220.437 174.472 217.991C169.874 213.393 165.141 208.897 160.561 204.317C159.695 203.452 159.395 202.306 158.605 201.516C156.2 199.111 160.204 199.323 161.512 199.323" stroke="#00796B" stroke-opacity="0.5" stroke-width="1.66333px" stroke-linecap="round" stroke-linejoin="round" fill="none"></path><path d="M378.578 200.173C366.66 194.495 357.026 185.108 347.339 176.255C339.725 169.297 331.74 162.422 323.338 156.417C321.68 155.232 319.338 152.848 317.096 153.864C314.875 154.871 313.595 157.613 311.839 159.237C307.517 163.235 303.63 168.121 300.075 172.819C296.163 177.991 302.03 180.854 305.657 184.24C309.777 188.087 313.712 192.054 318.212 195.448C322.49 198.674 325.926 203.121 329.842 206.774C335.81 212.34 341.392 218.266 347.343 223.839C350.886 227.156 354.95 229.863 358.361 233.298C359.557 234.502 360.662 236.093 362.041 237.095C363.148 237.9 364.68 234.804 365.074 234.221C368.203 229.594 373.049 226.429 376.112 221.589C378.038 218.547 379.334 214.791 381.639 212.012C382.74 210.686 385.491 207.7 384.286 205.762C383.055 203.783 379.56 202.835 377.654 201.418C376.168 200.314 374.362 198.95 372.67 198.182C371.441 197.624 370.234 196.634 369.135 195.872C366.242 193.867 369.308 194.724 371.265 195.469" stroke="#00796B" stroke-opacity="0.5" stroke-width="1.66333px" stroke-linecap="round" stroke-linejoin="round" fill="none"></path><path d="M376.758 209.258C369.503 213.749 362.995 220.249 357.331 226.659C357.188 226.821 355.809 227.782 356.019 228.138C356.425 228.824 361.134 225.725 361.584 225.415" stroke="#00796B" stroke-opacity="0.5" stroke-width="1.66333px" stroke-linecap="round" stroke-linejoin="round" fill="none"></path><path d="M369.564 202.764C363.682 204.448 360.177 207.653 355.428 211.082C353.313 212.609 351.158 213.988 349.259 215.784C348.368 216.627 347.732 217.738 346.909 218.647C345.78 219.894 350.39 217.2 350.934 216.89" stroke="#00796B" stroke-opacity="0.5" stroke-width="1.66333px" stroke-linecap="round" stroke-linejoin="round" fill="none"></path><path d="M361.018 197.73C356.901 201.445 352.764 205.109 348.518 208.674C346.906 210.029 345.075 211.272 343.682 212.867C341.209 215.699 344.448 212.025 345.547 210.987" stroke="#00796B" stroke-opacity="0.5" stroke-width="1.66333px" stroke-linecap="round" stroke-linejoin="round" fill="none"></path><path d="M355.252 194.189C352.199 196.046 349.01 197.844 346.424 200.347C345.364 201.374 344.484 202.584 343.35 203.535C341.954 204.707 340.73 206.074 339.324 207.213C337.322 208.835 337.021 209.308 339.4 207.273" stroke="#00796B" stroke-opacity="0.5" stroke-width="1.66333px" stroke-linecap="round" stroke-linejoin="round" fill="none"></path><path d="M347.816 188.738C344.448 191.374 341.331 194.051 338.514 197.267C337.267 198.691 336.261 200.335 334.678 201.428C333.228 202.429 332.211 202.718 333.909 201.091" stroke="#00796B" stroke-opacity="0.5" stroke-width="1.66333px" stroke-linecap="round" stroke-linejoin="round" fill="none"></path><path d="M340.658 183.184C337.692 185.412 334.768 187.446 332.399 190.317C331.315 191.631 330.459 193.141 329.247 194.353C326.788 196.814 328.479 195.573 330.258 193.903" stroke="#00796B" stroke-opacity="0.5" stroke-width="1.66333px" stroke-linecap="round" stroke-linejoin="round" fill="none"></path><path d="M334.057 177.418C329.893 181.401 326.406 186.067 322.234 190.001C319.426 192.65 323.45 188.405 324.108 187.651" stroke="#00796B" stroke-opacity="0.5" stroke-width="1.66333px" stroke-linecap="round" stroke-linejoin="round" fill="none"></path><path d="M325.996 172.836C322.491 171.405 318.856 169.699 316.972 166.202C316.453 165.238 315.784 164.399 315.57 163.312C315.277 161.82 315.334 162.46 316.441 163.426" stroke="#00796B" stroke-opacity="0.5" stroke-width="1.66333px" stroke-linecap="round" stroke-linejoin="round" fill="none"></path><path d="M320.354 177.65C317.576 175.072 314.47 172.255 312.434 168.982C311.418 167.35 309.484 165.357 312.188 167.718" stroke="#00796B" stroke-opacity="0.5" stroke-width="1.66333px" stroke-linecap="round" stroke-linejoin="round" fill="none"></path><path d="M311.446 183.054C308.914 180.302 306.662 177.744 304.331 174.867C303.578 173.938 301.285 172.731 304.044 173.469" stroke="#00796B" stroke-opacity="0.5" stroke-width="1.66333px" stroke-linecap="round" stroke-linejoin="round" fill="none"></path><path d="M313.461 181.664C310.811 179.393 307.814 176.749 305.715 173.882C305.154 173.117 304.723 172.265 304.21 171.47C303.351 170.139 303.297 170.588 304.6 170.725" stroke="#00796B" stroke-opacity="0.5" stroke-width="1.66333px" stroke-linecap="round" stroke-linejoin="round" fill="none"></path><path d="M369.604 213.845C356.402 208.482 353.144 193.927 342.386 185.696C341.077 184.695 340.014 183.582 338.488 182.888C337.467 182.425 336.207 182.203 335.278 181.61C334.712 181.248 330.006 177.654 333.276 179.139" stroke="#00796B" stroke-opacity="0.5" stroke-width="1.66333px" stroke-linecap="round" stroke-linejoin="round" fill="none"></path><path d="M375.749 209.953C374.268 208.152 372.953 206.61 371.073 205.307C370.765 205.093 370.289 205.057 370.036 204.772C369.533 204.206 368.773 203.38 368.579 202.65C367.817 199.778 364.092 200.309 362.114 198.869C360.232 197.499 358.421 196.112 356.503 194.759C354.39 193.267 353.412 191.96 351.715 190.049C350.156 188.294 348.642 186.518 346.992 184.857C345.642 183.497 343.52 182.261 342.661 180.521C341.691 178.557 339.212 176.31 336.981 176.674C336.215 176.799 330.584 180.062 334.265 177.975" stroke="#00796B" stroke-opacity="0.5" stroke-width="1.66333px" stroke-linecap="round" stroke-linejoin="round" fill="none"></path><path d="M196.255 282.781C194.774 280.98 193.458 279.438 191.579 278.135C191.271 277.921 190.795 277.885 190.542 277.6C190.039 277.034 189.278 276.208 189.085 275.478C188.323 272.606 184.598 273.137 182.62 271.697C180.738 270.327 178.927 268.94 177.009 267.587C174.895 266.096 173.918 264.788 172.22 262.877C170.661 261.122 169.148 259.346 167.498 257.685C166.147 256.325 164.026 255.089 163.167 253.349C162.197 251.385 159.718 249.138 157.487 249.502C156.721 249.627 151.09 252.89 154.771 250.804" stroke="#00796B" stroke-opacity="0.5" stroke-width="1.66333px" stroke-linecap="round" stroke-linejoin="round" fill="none"></path><path d="M363.804 216.972C353.884 211.739 348.378 200.33 341.677 191.711C339.209 188.537 335.682 186.427 333.099 183.308C331.994 181.974 329.553 180.557 332.391 180.58" stroke="#00796B" stroke-opacity="0.5" stroke-width="1.66333px" stroke-linecap="round" stroke-linejoin="round" fill="none"></path><path d="M360.262 220.204C351.273 214.678 345.517 204.396 338.977 196.248C336.001 192.541 333.13 188.756 330.118 185.079C328.744 183.403 326.35 182.356 329.423 184.072" stroke="#00796B" stroke-opacity="0.5" stroke-width="1.66333px" stroke-linecap="round" stroke-linejoin="round" fill="none"></path><path d="M356.721 225.972C351.111 220.501 346.582 214.598 341.993 208.271C339.202 204.424 336.789 200.099 333.512 196.635C331.632 194.647 330.184 192.319 328.477 190.212C327.79 189.363 327.315 188.374 326.609 187.532C325.017 185.636 326.127 187.352 327.235 188.38" stroke="#00796B" stroke-opacity="0.5" stroke-width="1.66333px" stroke-linecap="round" stroke-linejoin="round" fill="none"></path><path d="M355.401 228.368C352.609 225.634 348.519 223.002 346.657 219.455C345.981 218.167 344.308 215.058 343.135 214.27C341.584 213.228 340.844 211.012 339.715 209.618C338.54 208.167 337.389 206.751 336.113 205.37C334.917 204.076 334.534 201.804 333.053 200.69C331.403 199.449 330.601 197.528 329.285 196.046C328.146 194.764 325.977 193.435 324.564 192.455C323.781 191.913 323.234 191.173 322.346 190.77C320.546 189.952 321.715 190.371 323.362 190.309" stroke="#00796B" stroke-opacity="0.5" stroke-width="1.66333px" stroke-linecap="round" stroke-linejoin="round" fill="none"></path><path d="M326.223 173.861C323.913 174.47 321.066 174.888 318.962 176.147C317.604 176.959 316.421 177.774 318.894 176.295" stroke="#00796B" stroke-opacity="0.5" stroke-width="1.66333px" stroke-linecap="round" stroke-linejoin="round" fill="none"></path><path d="M323.824 170.006C320.53 170.866 318.202 171.831 315.516 173.583C313.76 174.728 314.041 174.411 315.871 173.308" stroke="#00796B" stroke-opacity="0.5" stroke-width="1.66333px" stroke-linecap="round" stroke-linejoin="round" fill="none"></path><path d="M319.828 166.117C316.999 167.708 314.255 169.516 311.33 170.901C309.61 171.716 310.513 171.659 311.841 171.018" stroke="#00796B" stroke-opacity="0.5" stroke-width="1.66333px" stroke-linecap="round" stroke-linejoin="round" fill="none"></path><path d="M317.553 163.01C314.578 164.364 311.837 165.713 309.098 167.416C307.849 168.193 308.983 168.243 309.93 167.615" stroke="#00796B" stroke-opacity="0.5" stroke-width="1.66333px" stroke-linecap="round" stroke-linejoin="round" fill="none"></path><path d="M324.765 172.506C322.517 169.834 320.263 167.303 318.217 164.564C317.636 163.786 314.095 159.455 315.626 161.672" stroke="#00796B" stroke-opacity="0.5" stroke-width="1.66333px" stroke-linecap="round" stroke-linejoin="round" fill="none"></path><path d="M322.403 177.197C319.479 174.612 315.265 171.166 314.321 167.304C314.044 166.167 313.441 165.031 312.559 164.25C311.663 163.457 310.727 163.099 312.065 164.435" stroke="#00796B" stroke-opacity="0.5" stroke-width="1.66333px" stroke-linecap="round" stroke-linejoin="round" fill="none"></path><path d="M324.747 177.109C321.63 173.751 318.965 171.494 317.204 167.358C316.746 166.284 316.222 165.393 315.471 164.548C314.675 163.652 313.533 162.813 315.069 164.417" stroke="#00796B" stroke-opacity="0.5" stroke-width="1.66333px" stroke-linecap="round" stroke-linejoin="round" fill="none"></path><path d="M313.164 178.764C311.728 179.674 310.289 180.517 308.797 181.275C308.181 181.588 308.943 180.982 309.205 180.884" stroke="#00796B" stroke-opacity="0.5" stroke-width="1.66333px" stroke-linecap="round" stroke-linejoin="round" fill="none"></path><path d="M310.367 174.266C310.27 174.348 304.626 179.184 305.627 178.105" stroke="#00796B" stroke-opacity="0.5" stroke-width="1.66333px" stroke-linecap="round" stroke-linejoin="round" fill="none"></path><path d="M307.014 172.514C305.769 173.712 301.956 177.215 303.298 176.127" stroke="#00796B" stroke-opacity="0.5" stroke-width="1.66333px" stroke-linecap="round" stroke-linejoin="round" fill="none"></path><path d="M314.832 180.674C312.768 178.752 308.243 174.946 307.135 171.992C306.698 170.828 304.697 169.333 306.579 170.933" stroke="#00796B" stroke-opacity="0.5" stroke-width="1.66333px" stroke-linecap="round" stroke-linejoin="round" fill="none"></path><path d="M314.573 181.246C314.377 181.403 310.43 185.653 309.589 183.592C309.159 182.54 308.6 181.17 307.546 180.59C305.698 179.573 305.356 176.369 303.464 175.51C301.317 174.535 301.518 172.9 303.517 172.32C304.302 172.092 303.683 170.544 304.499 170.666C305.245 170.777 305.641 170.501 306.476 170.654" stroke="#00796B" stroke-opacity="0.5" stroke-width="1.66333px" stroke-linecap="round" stroke-linejoin="round" fill="none"></path><path d="M326.484 173.287C325.13 175.874 324.874 176.811 322.69 177.89C322.101 178.181 321.331 177.777 320.884 178.004C319.999 178.454 318.25 178.463 317.589 177.648C316.26 176.008 315.771 174.949 313.736 173.951C312.452 173.322 311.419 171.837 310.825 170.606C310.172 169.253 308.995 168.234 308.306 166.876C308.013 166.298 310.382 164.808 310.404 163.808C310.41 163.524 313.224 163.516 313.692 163.278C314.259 162.99 314.519 162.584 314.791 161.985C315.189 161.109 315.894 162.196 316.962 162.279" stroke="#00796B" stroke-opacity="0.5" stroke-width="1.66333px" stroke-linecap="round" stroke-linejoin="round" fill="none"></path><path d="M373.352 206.098C370.155 207.313 367.367 208.879 364.489 210.613C361.99 212.119 359.166 212.921 356.683 214.38C354.916 215.419 353.081 217.79 351.777 219.348C351.342 219.867 351.017 220.352 350.709 220.937C350.002 222.279 350.738 219.035 350.812 218.679" stroke="#00796B" stroke-opacity="0.5" stroke-width="1.66333px" stroke-linecap="round" stroke-linejoin="round" fill="none"></path><path d="M342.482 181.705C341.596 182.636 338.006 187.774 338.714 183.912" stroke="#00796B" stroke-opacity="0.5" stroke-width="1.66333px" stroke-linecap="round" stroke-linejoin="round" fill="none"></path><path d="M21.2884 171.486C26.5722 170.121 31.5274 169.769 35.4844 174.166C36.1671 174.924 37.9192 177.061 37.7022 178.255C36.7014 183.759 32.9771 184.254 27.9879 183.707C22.7997 183.137 16.9589 178.899 17.4534 172.964C17.6669 170.403 17.7852 168.97 20.7339 168.182C22.0481 167.831 23.6466 167.949 24.7767 168.771C25.6267 169.389 24.4518 168.733 24.1992 168.575" stroke="#00796B" stroke-opacity="0.5" stroke-width="1.66333px" stroke-linecap="round" stroke-linejoin="round" fill="none"></path><path d="M129.4 263.061C125.435 263.037 121.096 263.867 118.023 260.955C117.275 260.247 116.764 259.799 116.244 260.955C114.943 263.845 114.652 267.689 114.652 270.833C114.652 272.003 122.176 271.91 123.922 271.91C124.731 271.91 127.326 273.043 128.042 272.238C128.645 271.56 126 268.676 126.661 267.486C127.337 266.268 127.083 265.494 128.744 265.192C131.273 264.732 126.747 263.483 129.4 263.483" stroke="#00796B" stroke-opacity="0.5" stroke-width="1.66333px" stroke-linecap="round" stroke-linejoin="round" fill="none"></path><path d="M220.837 290.45C223.251 295.218 226.71 300.979 222.311 305.759C219.701 308.596 216.337 306.285 213.767 304.776C209.488 302.263 208.253 296.33 212.222 292.838C214.659 290.693 216.599 291.009 219.151 289.935C221.445 288.969 221.229 292.107 219.572 290.45" stroke="#00796B" stroke-opacity="0.5" stroke-width="1.66333px" stroke-linecap="round" stroke-linejoin="round" fill="none"></path><path d="M126.451 201.542C120.373 199.78 116.58 198.593 110.65 198.593C107.897 198.593 108.757 196.904 110.533 200.278C111.797 202.68 113.656 205.105 115.309 207.23C116.063 208.201 116.624 211.476 117.275 211.983C117.584 212.223 119.49 209.318 119.92 209.127C121.357 208.488 122.508 207.131 124.087 206.645C125.058 206.347 131.656 204.754 131.086 204.398C128.738 202.93 127.564 203.358 124.977 202.783C120.522 201.793 122.434 202.117 126.451 202.385" stroke="#00796B" stroke-opacity="0.5" stroke-width="1.66333px" stroke-linecap="round" stroke-linejoin="round" fill="none"></path><path d="M129.4 172.468C130.603 177.336 132.024 181.818 133.942 186.372C135.167 189.282 132.583 186.284 131.086 185.951C126.592 184.952 121.456 182.467 117.181 180.567C115.269 179.717 121.376 174.659 122.869 173.497C125.445 171.494 127.717 171.625 130.664 171.625" stroke="#00796B" stroke-opacity="0.5" stroke-width="1.66333px" stroke-linecap="round" stroke-linejoin="round" fill="none"></path><path d="M212.83 174.575C218.162 181.872 218.246 182.473 211.168 185.717C208.293 187.035 204.58 186.526 202.389 184.172C197.86 179.308 202.27 173.231 206.322 170.221C207.786 169.133 211.987 167.639 211.987 170.783C211.987 175.953 210.102 174.205 212.409 170.361" stroke="#00796B" stroke-opacity="0.5" stroke-width="1.66333px" stroke-linecap="round" stroke-linejoin="round" fill="none"></path></g><path d="M276.151 230.269L226.372 227.861C226.372 227.861 182.583 210.303 162.2 245.493C141.818 280.682 200.092 324.842 200.092 324.842L220.582 320.498L208.817 276.37C208.817 276.37 259.107 288.843 276.151 230.269Z" fill="#00796B"></path><path d="M276.151 230.269L276.185 229.57C276.399 229.581 276.596 229.688 276.72 229.863C276.845 230.037 276.882 230.259 276.822 230.464L276.151 230.269ZM226.372 227.861L226.338 228.56L226.22 228.554L226.111 228.511L226.372 227.861ZM200.092 324.842L200.237 325.527L199.925 325.593L199.67 325.4L200.092 324.842ZM220.582 320.498L221.258 320.318L221.448 321.029L220.727 321.182L220.582 320.498ZM208.817 276.37L208.141 276.55L207.836 275.406L208.985 275.691L208.817 276.37ZM276.117 230.967L226.338 228.56L226.405 227.163L276.185 229.57L276.117 230.967ZM199.947 324.158L220.437 319.814L220.727 321.182L200.237 325.527L199.947 324.158ZM219.906 320.678L208.141 276.55L209.493 276.19L221.258 320.318L219.906 320.678ZM208.817 276.37C208.985 275.691 208.985 275.691 208.985 275.691C208.985 275.691 208.985 275.691 208.986 275.691C208.987 275.691 208.989 275.692 208.991 275.693C208.996 275.694 209.004 275.696 209.015 275.698C209.037 275.704 209.071 275.712 209.117 275.722C209.208 275.743 209.346 275.773 209.527 275.811C209.89 275.886 210.429 275.989 211.122 276.101C212.509 276.324 214.515 276.579 216.977 276.705C221.903 276.956 228.641 276.687 235.9 274.612C250.373 270.474 267.025 259.129 275.479 230.073L276.822 230.464C268.233 259.983 251.218 271.688 236.285 275.957C228.841 278.085 221.941 278.359 216.905 278.102C214.386 277.974 212.33 277.712 210.9 277.482C210.185 277.367 209.626 277.26 209.244 277.181C209.053 277.141 208.906 277.109 208.806 277.086C208.756 277.074 208.718 277.065 208.691 277.059C208.678 277.056 208.668 277.054 208.661 277.052C208.657 277.051 208.654 277.05 208.652 277.05C208.651 277.049 208.65 277.049 208.65 277.049C208.649 277.049 208.648 277.049 208.817 276.37ZM226.372 227.861C226.111 228.511 226.111 228.511 226.111 228.511C226.111 228.51 226.111 228.51 226.11 228.51C226.109 228.51 226.108 228.509 226.106 228.508C226.101 228.506 226.094 228.504 226.084 228.5C226.064 228.492 226.034 228.48 225.994 228.465C225.914 228.434 225.793 228.388 225.633 228.329C225.314 228.211 224.841 228.043 224.23 227.839C223.007 227.433 221.235 226.89 219.043 226.347C214.657 225.26 208.605 224.176 201.93 224.18C188.591 224.189 172.831 228.534 162.806 245.843L161.595 245.142C171.952 227.262 188.278 222.791 201.929 222.782C208.749 222.777 214.918 223.883 219.379 224.989C221.611 225.542 223.419 226.096 224.671 226.512C225.297 226.72 225.784 226.894 226.117 227.016C226.283 227.078 226.41 227.126 226.497 227.159C226.54 227.176 226.573 227.189 226.596 227.198C226.607 227.202 226.616 227.206 226.622 227.208C226.625 227.209 226.627 227.21 226.629 227.211C226.63 227.211 226.63 227.212 226.631 227.212C226.631 227.212 226.632 227.212 226.372 227.861ZM162.806 245.843C157.827 254.439 157.637 263.592 160.195 272.545C162.757 281.513 168.072 290.25 174.055 297.934C180.033 305.612 186.65 312.202 191.777 316.876C194.339 319.211 196.526 321.066 198.072 322.336C198.845 322.97 199.457 323.459 199.875 323.788C200.084 323.953 200.245 324.078 200.353 324.161C200.407 324.203 200.448 324.234 200.475 324.255C200.488 324.265 200.499 324.273 200.505 324.278C200.509 324.28 200.511 324.282 200.513 324.283C200.513 324.284 200.514 324.284 200.514 324.285C200.515 324.285 200.515 324.285 200.092 324.842C199.67 325.4 199.669 325.4 199.669 325.399C199.668 325.399 199.668 325.398 199.667 325.397C199.665 325.396 199.662 325.394 199.658 325.391C199.651 325.385 199.64 325.377 199.625 325.366C199.596 325.344 199.554 325.311 199.498 325.268C199.387 325.182 199.223 325.055 199.01 324.887C198.585 324.553 197.965 324.058 197.184 323.417C195.623 322.134 193.417 320.264 190.834 317.909C185.671 313.203 178.994 306.554 172.951 298.793C166.913 291.038 161.481 282.138 158.85 272.929C156.214 263.704 156.383 254.142 161.595 245.142L162.806 245.843Z" fill="black"></path><path d="M199.155 324.15L219.627 317.657L227.518 335.06C227.518 335.06 209.99 341.109 198.214 341.544L203.95 335.089L199.155 324.15Z" fill="#EEEEEE" stroke="#000000" stroke-width="1.39887px" stroke-linejoin="round"></path><path d="M278.175 231.999L212.479 231.444C212.479 231.444 166.276 240.987 168.715 281.58C171.155 322.173 244.124 326.809 244.124 326.809L258.807 311.873L222.555 277.151C222.555 277.151 271.972 288.328 278.175 231.999Z" fill="#00796B" stroke="#000000" stroke-width="1.39887px"></path><path d="M242.957 326.75L256.439 310.032L272.627 320.183C272.627 320.183 261.355 334.906 251.777 341.771L252.995 333.221L242.957 326.75Z" fill="#EEEEEE" stroke="#000000" stroke-width="1.39887px" stroke-linejoin="round"></path><path fill-rule="evenodd" clip-rule="evenodd" d="M272.019 163.976C271.075 162.664 270.334 161.182 269.874 159.511C266.408 146.897 277.133 138.712 285.863 136.588C294.593 134.465 323.588 157.385 291.853 173.14C291.768 173.135 291.682 173.13 291.595 173.125C286.508 177.149 284.881 182.46 282.929 188.832C282.132 191.431 281.282 194.206 280.121 197.143L265.61 185.682C265.287 177.139 267.598 170.319 272.019 163.976Z" fill="#F5B9AB"></path><path d="M269.874 159.511L270.549 159.325L270.549 159.325L269.874 159.511ZM272.019 163.976L272.587 163.567C272.76 163.808 272.763 164.132 272.593 164.376L272.019 163.976ZM285.863 136.588L286.028 137.268L285.863 136.588ZM291.853 173.14L292.164 173.767C292.056 173.82 291.935 173.845 291.815 173.838L291.853 173.14ZM291.595 173.125L291.161 172.576C291.297 172.468 291.468 172.415 291.641 172.427L291.595 173.125ZM282.929 188.832L283.597 189.037L282.929 188.832ZM280.121 197.143L280.772 197.4C280.69 197.606 280.517 197.761 280.303 197.818C280.09 197.876 279.861 197.829 279.688 197.692L280.121 197.143ZM265.61 185.682L265.177 186.231C265.016 186.104 264.919 185.913 264.911 185.709L265.61 185.682ZM270.549 159.325C270.985 160.912 271.688 162.319 272.587 163.567L271.452 164.385C270.461 163.01 269.683 161.453 269.2 159.696L270.549 159.325ZM286.028 137.268C281.781 138.301 277.055 140.812 273.826 144.572C270.618 148.307 268.885 153.271 270.549 159.325L269.2 159.696C267.397 153.137 269.294 147.702 272.764 143.66C276.214 139.643 281.215 136.999 285.698 135.909L286.028 137.268ZM291.542 172.514C299.39 168.618 303.355 164.341 304.877 160.24C306.393 156.158 305.541 152.104 303.429 148.514C301.312 144.916 297.953 141.835 294.581 139.786C292.898 138.763 291.23 138.009 289.734 137.575C288.224 137.137 286.952 137.043 286.028 137.268L285.698 135.909C286.956 135.603 288.5 135.76 290.123 136.231C291.76 136.706 293.541 137.517 295.308 138.59C298.836 140.734 302.379 143.97 304.635 147.805C306.897 151.65 307.889 156.147 306.188 160.727C304.495 165.289 300.183 169.785 292.164 173.767L291.542 172.514ZM291.641 172.427C291.726 172.432 291.809 172.437 291.891 172.442L291.815 173.838C291.727 173.834 291.639 173.828 291.549 173.822L291.641 172.427ZM282.26 188.628C284.203 182.284 285.878 176.755 291.161 172.576L292.029 173.673C287.137 177.542 285.558 182.635 283.597 189.037L282.26 188.628ZM279.471 196.886C280.62 193.979 281.463 191.229 282.26 188.628L283.597 189.037C282.802 191.634 281.944 194.434 280.772 197.4L279.471 196.886ZM266.044 185.134L280.555 196.594L279.688 197.692L265.177 186.231L266.044 185.134ZM272.593 164.376C268.252 170.604 265.992 177.275 266.309 185.656L264.911 185.709C264.582 177.003 266.944 170.035 271.445 163.576L272.593 164.376Z" fill="black"></path><path d="M305.069 159.582C305.198 164.525 297.053 170.98 293.761 171.742C315.407 173.703 318.831 147.262 311.542 147.554C315.696 139.742 309.093 131.501 299.22 133.786C292.784 112.567 278.689 131.69 281.696 138.099C284.702 144.507 292.745 145.816 294.869 149.511C296.994 153.206 292.611 163.862 297.157 159.384C301.702 154.906 304.906 153.402 305.069 159.582Z" fill="#00796B" stroke="#000000" stroke-width="1.39887px"></path><path d="M210.903 229.204C201.565 207.688 231.556 185.739 238.171 181.231C239.021 180.652 239.885 180.142 240.784 179.643C258 170.081 282.228 168.83 291.047 186.437C306.463 217.215 268.03 249.347 253.834 269.813L210.903 229.204Z" fill="#EEEEEE"></path><path d="M238.171 181.231L238.565 181.809L238.171 181.231ZM210.903 229.204L210.422 229.712L210.318 229.613L210.261 229.482L210.903 229.204ZM253.834 269.813L254.409 270.212C254.293 270.379 254.109 270.488 253.907 270.509C253.704 270.53 253.502 270.462 253.354 270.321L253.834 269.813ZM291.047 186.437L290.422 186.751L291.047 186.437ZM240.784 179.643L240.444 179.031L240.445 179.031L240.784 179.643ZM238.565 181.809C235.276 184.05 226.19 190.62 219.096 199.283C211.977 207.976 207.041 218.549 211.544 228.925L210.261 229.482C205.427 218.343 210.817 207.184 218.013 198.396C225.234 189.578 234.452 182.919 237.777 180.653L238.565 181.809ZM211.383 228.695L254.315 269.305L253.354 270.321L210.422 229.712L211.383 228.695ZM253.26 269.415C256.832 264.264 261.926 258.383 267.27 252.029C272.628 245.659 278.257 238.79 282.96 231.609C292.383 217.221 297.954 201.788 290.422 186.751L291.672 186.124C299.556 201.864 293.619 217.886 284.13 232.375C279.377 239.633 273.7 246.557 268.341 252.93C262.967 259.319 257.934 265.13 254.409 270.212L253.26 269.415ZM241.124 180.254C240.234 180.748 239.391 181.246 238.565 181.809L237.777 180.653C238.652 180.057 239.535 179.536 240.444 179.031L241.124 180.254ZM240.445 179.031C249.15 174.196 259.646 171.449 269.116 172.154C278.604 172.86 287.125 177.045 291.672 186.124L290.422 186.751C286.15 178.223 278.148 174.229 269.012 173.549C259.86 172.868 249.634 175.528 241.124 180.254L240.445 179.031Z" fill="black"></path><path d="M199.326 218.072L214.217 200.541L235.859 217.397C239.289 192.692 266.774 172.775 277.409 175.532C305.999 182.947 273.585 247.113 252.905 256.398C232.226 265.683 199.326 218.072 199.326 218.072Z" fill="#EEEEEE" stroke="#000000" stroke-width="1.39887px"></path><path d="M212.925 199.122L214.815 201.008L199.684 218.587L196.595 215.514C191.416 210.362 192.25 201.757 198.323 197.696C202.908 194.63 209.02 195.227 212.925 199.122Z" fill="#F5B9AB" stroke="#000000" stroke-width="1.39887px" stroke-linejoin="round"></path><path fill-rule="evenodd" clip-rule="evenodd" d="M288.273 267.966C288.604 267.888 288.936 268.13 288.936 268.471L288.82 335.027H302.043C302.32 335.027 302.545 335.252 302.545 335.53V343.386C302.545 343.663 302.32 343.888 302.043 343.888H264.313C264.036 343.888 263.811 343.663 263.811 343.386V335.53C263.811 335.252 264.036 335.027 264.313 335.027H278.684V268.089C278.684 267.79 278.945 267.557 279.242 267.591C279.914 267.669 280.548 267.749 281.15 267.825C284.04 268.189 286.192 268.46 288.273 267.966Z" fill="#00796B"></path><path d="M288.936 268.471L289.635 268.472V268.472L288.936 268.471ZM288.273 267.966L288.111 267.286L288.111 267.286L288.273 267.966ZM288.82 335.027V335.727H288.119L288.12 335.026L288.82 335.027ZM278.684 335.027H279.383V335.727H278.684V335.027ZM279.242 267.591L279.322 266.896V266.896L279.242 267.591ZM281.15 267.825L281.237 267.131V267.131L281.15 267.825ZM288.236 268.47C288.236 268.539 288.273 268.593 288.309 268.621C288.342 268.646 288.388 268.658 288.434 268.647L288.111 267.286C288.845 267.112 289.637 267.641 289.635 268.472L288.236 268.47ZM288.12 335.026L288.236 268.47L289.635 268.472L289.519 335.029L288.12 335.026ZM302.043 335.727H288.82V334.328H302.043V335.727ZM301.845 335.53C301.845 335.639 301.934 335.727 302.043 335.727V334.328C302.706 334.328 303.244 334.866 303.244 335.53H301.845ZM301.845 343.386V335.53H303.244V343.386H301.845ZM302.043 343.189C301.934 343.189 301.845 343.277 301.845 343.386H303.244C303.244 344.05 302.706 344.588 302.043 344.588V343.189ZM264.313 343.189H302.043V344.588H264.313V343.189ZM264.51 343.386C264.51 343.277 264.422 343.189 264.313 343.189V344.588C263.649 344.588 263.111 344.05 263.111 343.386H264.51ZM264.51 335.53V343.386H263.111V335.53H264.51ZM264.313 335.727C264.422 335.727 264.51 335.639 264.51 335.53H263.111C263.111 334.866 263.649 334.328 264.313 334.328V335.727ZM278.684 335.727H264.313V334.328H278.684V335.727ZM279.383 268.089V335.027H277.984V268.089H279.383ZM279.161 268.286C279.28 268.3 279.383 268.207 279.383 268.089H277.984C277.984 267.372 278.609 266.814 279.322 266.896L279.161 268.286ZM281.062 268.519C280.46 268.443 279.829 268.363 279.161 268.286L279.322 266.896C279.998 266.975 280.636 267.055 281.237 267.131L281.062 268.519ZM288.434 268.647C286.206 269.175 283.919 268.878 281.062 268.519L281.237 267.131C284.162 267.499 286.178 267.744 288.111 267.286L288.434 268.647Z" fill="black"></path><path d="M304.225 201.391C295.489 222.213 311.896 229.842 311.705 243.684C311.44 262.84 280.2 281.323 260.649 241.299" stroke="#000000" stroke-width="1.39887px" fill="none"></path><rect width="23.7974" height="76.9617" rx="11.8987" transform="matrix(-0.922132 -0.386876 -0.386876 0.922132 339.377 161.223)" fill="#00796B" stroke="#000000" stroke-width="1.39887px"></rect><rect width="11.3924" height="104.05" rx="0.502194" transform="matrix(-1 0 0 1 124.283 239.84)" fill="#00796B" stroke="#000000" stroke-width="1.39887px"></rect><rect width="38.1458" height="82.3685" rx="19.0729" transform="matrix(-0.0218349 0.999762 0.999762 0.0218349 209.445 239.367)" fill="#00796B" stroke="#000000" stroke-width="1.39887px"></rect><rect width="23.7974" height="129.445" rx="11.8987" transform="matrix(-0.0218349 0.999762 0.999762 0.0218349 54.168 219.887)" fill="#00796B" stroke="#000000" stroke-width="1.39887px"></rect><rect width="60.7592" height="11.3923" rx="2.00878" transform="matrix(0.258819 0.965926 0.965926 -0.258819 72.8652 157.555)" fill="#00796B" stroke="#000000" stroke-width="1.39887px"></rect><rect width="60.7592" height="11.3924" rx="2.00878" transform="matrix(-1 0 0 1 146.938 210.301)" fill="#EEEEEE" stroke="#000000" stroke-width="1.39887px"></rect><defs><clipPath id="clip0_1552_204"><rect width="397" height="298" fill="white" transform="matrix(-1 0 0 1 397 0)"></rect></clipPath></defs></svg>